<?xml version="1.0" standalone="no"?>
<!DOCTYPE svg PUBLIC "-//W3C//DTD SVG 1.1//EN" "http://www.w3.org/Graphics/SVG/1.1/DTD/svg11.dtd" >
<svg>
<metadata>
Created by FontForge 20090622 at Mon Mar  7 08:32:01 2016
 By deploy user
Copyright &#194;&#169; 2002 CastleType.  All rights reserved.
</metadata>
<defs>
<font id="ShangoBold" horiz-adv-x="0" >
  <font-face 
    font-family="ShangoBold"
    font-weight="700"
    font-stretch="normal"
    units-per-em="1000"
    panose-1="0 0 7 0 0 0 0 0 0 0"
    ascent="800"
    descent="-200"
    x-height="706"
    cap-height="710"
    bbox="-167 -241 1683 895"
    underline-thickness="20"
    underline-position="-190"
    unicode-range="U+0020-U+F002"
  />
<missing-glyph horiz-adv-x="500" 
d="M63 0v800h375v-800h-375zM125 63h250v675h-250v-675z" />
    <glyph glyph-name=".notdef" horiz-adv-x="500" 
d="M63 0v800h375v-800h-375zM125 63h250v675h-250v-675z" />
    <glyph glyph-name="glyph1" 
 />
    <glyph glyph-name="nonmarkingreturn" horiz-adv-x="250" 
 />
    <glyph glyph-name="space" unicode=" " horiz-adv-x="250" 
 />
    <glyph glyph-name="exclam" unicode="!" horiz-adv-x="289" 
d="M229 710q-10 -8 -17 -18q-18 -22 -20 -45l-43 -488h-6l-47 488q-3 35 -36 63l88 -10zM199 42q0 -22 -16 -37t-37 -15q-22 0 -37.5 15t-15.5 37q0 21 15.5 36.5t37.5 15.5q21 0 37 -15.5t16 -36.5z" />
    <glyph glyph-name="quotedbl" unicode="&#x22;" horiz-adv-x="345" 
d="M305 661q0 -15 -1 -20l-47 -245h-4l-47 245q-1 5 -1 18q0 56 50 56t50 -54zM139 661q0 -15 -1 -20l-47 -245h-4l-47 245q-1 5 -1 18q0 56 50 56t50 -54z" />
    <glyph glyph-name="numbersign" unicode="#" horiz-adv-x="427" 
d="M425 180q-3 -1 -12 14.5t-25 15.5q-7 0 -46.5 -10t-41.5 -10q-29 0 -29 21q0 -9 3 22q1 11 -7 11q-12 0 -34 -6q-4 -1 -8 -5q-6 -102 -89 -169q-34 -28 -75 -47q-37 -17 -54 -17q-6 0 -7 17q76 25 83 29q50 25 50 69q0 32 -19 37q-3 1 -14 -2q-9 -2 -9 0q0 11 19 11
q8 0 16.5 -5.5t10.5 -5.5q5 0 7 7q13 40 41 65q24 22 24 21q0 5 -13.5 19t-20.5 14q-2 0 -12.5 -22.5t-37.5 -22.5q-3 0 -19.5 2t-18.5 2q-26 0 -39 -5q-22 -10 -38 -40q-1 5 -1 11q3 35 41 81q42 50 80 50q32 0 40 -18q1 -8 4 -22l20 -16q10 -11 22 -23q1 0 1 45
q0 17 -6 39q-1 5 -18 5q-35 0 -35 32q0 18 21 27t21 12q0 10 -8 11q-41 6 -41 34q0 13 11 23t24 10t13 0.5t1 20.5t1 28v17q-24 29 -24 43q0 41 36 41q15 0 16 2q38 57 85 57q24 0 48 -20l1 -16q-9 8 -19.5 16.5t-30.5 8.5q-29 0 -54 -23q-20 -19 -20 -28q0 -2 12 -10
t12 -11q0 1 -9 -19q-12 28 -21 28q-2 0 -10 -30.5t-8 -35.5q0 1 15.5 -19t15.5 -42q0 -4 -3 -17.5t-3 -14.5q0 -12 1 -15h12q22 9 22 16q0 3 -3 10.5t-3 12.5q3 35 58 35q15 0 31 -3.5t32 -3.5q9 0 16.5 7t11.5 7q3 0 2 -4q-11 -44 -47.5 -74t-72.5 -30q-13 0 -15.5 7.5
t-4 14t-4.5 6.5q-9 0 -23 -10q-4 -1 -9 -7v-21q0 -20 10 -35.5t10 -34.5q0 -12 -19 -36q-5 -5 -14 -16q-4 -6 -4 -28q0 -15 5 -15q3 0 17 1.5t16 1.5q12 0 17.5 20t36.5 20q42 0 78 -46q30 -38 30 -62q0 -4 -2 -5zM220 629q-6 2 -10 2q-22 0 -22 -30q0 -8 6.5 -19.5
t9.5 -11.5q2 0 6 23q6 27 10 36zM237 498q0 15 -10 31t-14 16t-4 -57q0 -2 10 -11t12 -9q6 24 6 30zM227 455q0 10 -18 17v-27q18 0 18 10zM229 439q-19 -4 -19 -12q0 -14 3 -14q8 5 16 16v10zM235 400l-3 16q-4 -3 -10 -9zM199 442v17q-1 13 -1 16.5t-11 3.5q-27 0 -27 -23
q0 -7 9.5 -14t18.5 -7q5 0 10 -1q1 0 1 8zM237 385q0 11 -17 11q-5 0 -4 -14q0 -8 4 -8q2 0 9.5 4t7.5 7zM254 350q0 24 -11 24q-9 0 -16 -7.5t-7 -11.5q0 -2 1 -7t1 -9q0 2 4 -32q28 20 28 43zM209 358q0 3 -2.5 16t-2.5 20q0 2 -7 2q-10 0 -19.5 -7.5t-9.5 -14.5
q0 -25 30 -25q11 0 11 9zM212 227q-25 -8 -46.5 -50.5t-21.5 -74.5q0 -12 1 -12q11 0 32.5 32.5t30.5 68.5q4 19 4 36z" />
    <glyph glyph-name="dollar" unicode="$" horiz-adv-x="438" 
d="M398 187q0 -70 -45 -127t-113 -68v-106h-41v104q-40 1 -74 12.5t-45 11.5q-8 0 -19 -6q-20 20 -24 141q32 -74 56 -96q34 -32 106 -34v291q-72 56 -101 92q-46 57 -46 120q0 71 40 125t107 62v91h41v-90q40 -2 74 -16q43 -19 61 -23q-7 -42 -7 -57t-3 -83q-7 41 -24 100
q-8 16 -37.5 31.5t-63.5 20.5v-261q75 -60 108 -102q50 -64 50 -133zM199 455v229q-41 -6 -65 -37.5t-24 -69.5q0 -49 89 -122zM337 129q0 70 -97 149v-255q38 11 67.5 42.5t29.5 63.5z" />
    <glyph glyph-name="percent" unicode="%" horiz-adv-x="862" 
d="M832 166q0 -80 -53 -130q-49 -47 -118 -47q-74 0 -121 51.5t-47 125.5q0 72 51 120t119 48q70 0 119.5 -49.5t49.5 -118.5zM638 709l-356 -737h-59l356 737h59zM369 532q0 -80 -53 -130q-49 -47 -118 -47q-74 0 -121 51.5t-47 125.5q0 72 51.5 120t119.5 48
q70 0 119 -49.5t49 -118.5zM750 166q0 71 -30 109q-24 29 -57 29q-34 0 -58 -29q-30 -37 -30 -108q0 -77 31 -117q23 -30 55 -30q33 0 57 30q32 39 32 116zM288 532q0 71 -31 109q-24 29 -57 29q-34 0 -58 -29q-30 -37 -30 -108q0 -77 31 -117q24 -30 56 -30q33 0 57 30
q32 39 32 116z" />
    <glyph glyph-name="ampersand" unicode="&#x26;" horiz-adv-x="843" 
d="M843 -10q-107 11 -144 11q-29 0 -126 -11q12 7 21 14q21 16 22 26q2 15 -13 27l-88 71q-45 -68 -93 -101q-71 -47 -177 -47q-100 0 -157.5 49t-57.5 133q0 94 184 204q-118 87 -118 175q0 68 52 115q49 44 118 44q71 0 117 -41.5t46 -107.5q0 -91 -126 -158l230 -176
q46 114 46 228q0 36 -62 78q80 -10 101 -10q72 0 116 10q-38 -24 -45 -35l-4 -10q-10 -7 -26 -45l-35 -91q-37 -93 -66 -146l197 -153zM334 541q0 130 -67 130q-30 0 -49 -34q-20 -37 -20 -96q0 -67 78 -127q58 36 58 127zM491 146l-251 200q-106 -70 -106 -167
q0 -75 29 -119q32 -50 96 -50q65 0 128.5 37t103.5 99z" />
    <glyph glyph-name="quotesingle" unicode="'" horiz-adv-x="178" 
d="M139 661q0 -15 -1 -20l-47 -245h-4l-47 245q-2 10 -2 19q0 55 51 55q50 0 50 -54z" />
    <glyph glyph-name="parenleft" unicode="(" horiz-adv-x="236" 
d="M226 -137l-7 -2l-88 128q-52 80 -78 154q-33 97 -33 210q0 141 58 262q28 60 126 203l4 -2q-52 -98 -81 -227q-28 -121 -28 -237q0 -114 34 -248q35 -142 93 -241z" />
    <glyph glyph-name="parenright" unicode=")" horiz-adv-x="236" 
d="M216 352q0 -113 -33 -210q-26 -74 -78 -154l-88 -128l-7 2q58 99 93 241q34 134 34 248q0 116 -27 237q-30 129 -82 227l4 2q98 -143 127 -203q57 -121 57 -262z" />
    <glyph glyph-name="asterisk" unicode="*" horiz-adv-x="393" 
d="M353 484q0 -14 -11.5 -27t-25.5 -13t-30 15l-80 75l24 -109q2 -9 2 -18q0 -31 -37 -31q-36 0 -36 32q0 5 3 18l25 108l-82 -75q-16 -15 -30 -15t-24.5 12.5t-10.5 26.5q0 27 34 37l104 30l-106 33q-32 10 -32 34q0 15 11 27.5t26 12.5q14 0 30 -15l80 -75l-24 109
q-2 9 -2 17q0 33 37 33q36 0 36 -32q0 -6 -3 -19l-24 -107l81 75q15 14 31 14q14 0 24 -12.5t10 -28.5q0 -24 -34 -34l-103 -31l105 -33q32 -10 32 -34z" />
    <glyph glyph-name="plus" unicode="+" horiz-adv-x="665" 
d="M625 261h-254v-261h-76v261h-255v75h255v260h76v-260h254v-75z" />
    <glyph glyph-name="comma" unicode="," horiz-adv-x="200" 
d="M154 36q0 -110 -68 -172q-47 -42 -111 -55q53 40 73 64q43 49 43 107q0 4 -21.5 19.5t-21.5 41.5q0 21 14.5 37t36.5 16q23 0 39 -15.5t16 -42.5z" />
    <glyph glyph-name="hyphen" unicode="-" horiz-adv-x="310" 
d="M273 349h-237v53h237v-53z" />
    <glyph glyph-name="hyphen" unicode="&#x2010;" horiz-adv-x="310" 
d="M273 349h-237v53h237v-53z" />
    <glyph glyph-name="period" unicode="." horiz-adv-x="200" 
d="M153 42q0 -22 -16 -37t-37 -15q-22 0 -37.5 15t-15.5 37q0 21 15.5 36.5t37.5 15.5q21 0 37 -15.5t16 -36.5z" />
    <glyph glyph-name="slash" unicode="/" horiz-adv-x="346" 
d="M346 731l-279 -815l-67 27l279 812z" />
    <glyph glyph-name="zero" unicode="0" horiz-adv-x="581" 
d="M541 360q0 -171 -78 -279q-72 -101 -175 -101q-109 0 -178.5 110t-69.5 270q0 154 77 259q74 101 175 101q104 0 176.5 -106t72.5 -254zM441 360q0 168 -51 257q-41 74 -99 74q-59 0 -100 -74q-50 -89 -50 -255q0 -181 51 -276q40 -76 97 -76q58 0 99 75q53 93 53 275z
" />
    <glyph glyph-name="one" unicode="1" horiz-adv-x="361" 
d="M308 -10q-120 10 -138 10q-16 0 -113 -10q69 39 69 74v511l-58 -70l-22 23l168 207v-671q0 -37 94 -74z" />
    <glyph glyph-name="two" unicode="2" horiz-adv-x="524" 
d="M479 164l-49 -118q-10 -17 -41 -56q-33 10 -75 10h-191q-19 0 -70 -6v23q267 324 267 503q0 72 -25.5 121.5t-65.5 49.5q-57 0 -85 -52q-18 -34 -32 -120q-9 40 -19 101q-1 13 -1 68q6 2 47 18q35 14 92 14q85 0 136.5 -53t51.5 -144q0 -85 -88 -221q-55 -85 -184 -242
h171q57 0 93 23.5t68 80.5z" />
    <glyph glyph-name="three" unicode="3" horiz-adv-x="452" 
d="M412 213q0 -117 -66 -180q-56 -53 -141 -53q-43 0 -79 10.5l-74 22.5q-3 24 -6 67q-1 18 3 107q17 -106 53 -142q12 -12 38 -22q30 -13 59 -13q49 0 84 58q30 51 30 102q0 89 -49 143q-46 51 -117 55v2q140 44 140 198q0 61 -29 95q-23 28 -57 28q-59 0 -86 -52
q-18 -35 -37 -145q-10 104 -10 121q0 12 5 47q62 58 132 58q61 0 111 -37q64 -48 64 -138q0 -86 -115 -153q65 -19 106 -69.5t41 -109.5z" />
    <glyph glyph-name="four" unicode="4" horiz-adv-x="571" 
d="M541 316q-12 -38 -35 -102q-18 -30 -66 -30h-15v-104q0 -42 77 -90q-107 10 -127 10q-19 0 -113 -10q63 51 63 90v104h-304v7q354 492 404 547v-512q49 0 78 31zM325 226v311l-223 -311h223z" />
    <glyph glyph-name="five" unicode="5" horiz-adv-x="507" 
d="M467 286q0 -127 -75.5 -216.5t-182.5 -89.5q-41 0 -82 8q-58 12 -67 13l-11 47q-5 27 -14 133q33 -92 53 -120q39 -51 115 -51q67 0 116 81q45 76 45 166q0 61 -34 109q-36 52 -89 52q-50 0 -86 -19q-4 -2 -67 -43l33 209q6 31 19 135h221q26 0 46 18q12 11 39 49
q-14 -47 -37 -107q-18 -28 -57 -28h-174l-32 -199q64 32 103 32q89 0 151 -46q67 -51 67 -133z" />
    <glyph glyph-name="six" unicode="6" horiz-adv-x="495" 
d="M455 245q0 -116 -59.5 -190.5t-148.5 -74.5q-94 0 -150.5 76.5t-56.5 196.5q0 230 156 357q93 76 244 110l2 -9q-31 -9 -58 -20q-66 -27 -107 -60q-76 -61 -110 -156q-32 -90 -32 -230q0 -100 30 -166q31 -69 83 -69q45 0 75 54q35 62 35 171q0 84 -31 135q-30 48 -74 48
q-39 0 -63 -16l-2 5q40 30 80 30q65 0 123 -51q64 -58 64 -141z" />
    <glyph glyph-name="seven" unicode="7" horiz-adv-x="491" 
d="M485 696l-371 -785h-100l384 723h-261q-55 0 -76.5 -18.5t-43.5 -77.5q5 60 16 131q17 36 63 35q30 -1 218 -8q100 -4 168 5z" />
    <glyph glyph-name="eight" unicode="8" horiz-adv-x="475" 
d="M435 181q0 -87 -55.5 -144t-137.5 -57q-90 0 -146 52.5t-56 146.5q0 59 47 113q41 48 102 76q-47 36 -76 80q-32 47 -32 87q0 75 40 126q46 59 125 59q65 0 112.5 -52t47.5 -124q0 -93 -128 -146q157 -129 157 -217zM321 570q0 57 -22 89t-55 32q-40 0 -62 -38
q-21 -34 -21 -88q0 -76 95 -150q41 36 55 74q10 28 10 81zM336 160q0 96 -124 190q-72 -68 -72 -198q0 -142 104 -142q38 0 63 37q29 41 29 113z" />
    <glyph glyph-name="nine" unicode="9" horiz-adv-x="490" 
d="M450 445q0 -196 -111 -317q-104 -113 -291 -148l-2 9q27 8 53 19q61 24 108 53q82 51 115 148q32 90 32 251q0 105 -37 171q-33 60 -77 60q-48 0 -76 -54q-31 -58 -31 -171q0 -91 32 -139q29 -42 75 -42q42 0 63 15l3 -4q-34 -21 -82 -21q-73 0 -126 50q-58 53 -58 138
q0 111 63 186q60 71 138 71q94 0 151.5 -77.5t57.5 -197.5z" />
    <glyph glyph-name="colon" unicode=":" horiz-adv-x="200" 
d="M153 382q0 -22 -15.5 -37t-36.5 -15q-22 0 -37.5 15t-15.5 37q0 21 15.5 36.5t37.5 15.5q21 0 36.5 -15.5t15.5 -36.5zM153 42q0 -22 -15.5 -37t-36.5 -15q-22 0 -37.5 15t-15.5 37q0 21 15.5 36.5t37.5 15.5q21 0 36.5 -15.5t15.5 -36.5zM-25 -191z" />
    <glyph glyph-name="semicolon" unicode=";" horiz-adv-x="200" 
d="M153 382q0 -22 -15.5 -37t-36.5 -15q-22 0 -37.5 15t-15.5 37q0 21 15.5 36.5t37.5 15.5q21 0 36.5 -15.5t15.5 -36.5zM154 36q0 -110 -68 -172q-47 -42 -111 -55q53 40 73 64q43 49 43 107q0 4 -21.5 19.5t-21.5 41.5q0 21 14.5 37t36.5 16q23 0 39 -15.5t16 -42.5z" />
    <glyph glyph-name="less" unicode="&#x3c;" horiz-adv-x="655" 
d="M615 32l-575 235v62l575 235v-81l-456 -185l456 -184v-82z" />
    <glyph glyph-name="equal" unicode="=" horiz-adv-x="665" 
d="M625 349h-585v71h585v-71zM625 176h-585v71h585v-71z" />
    <glyph glyph-name="greater" unicode="&#x3e;" horiz-adv-x="655" 
d="M615 267l-575 -235v82l456 184l-456 185v81l575 -235v-62z" />
    <glyph glyph-name="question" unicode="?" horiz-adv-x="432" 
d="M392 559q0 -80 -63 -130q-20 -15 -117 -64q-63 -31 -63 -66q0 -74 83 -123l-6 -5q-132 59 -132 138q0 56 58 107l108 79q58 45 58 86q0 54 -35 83q-31 27 -83 27q-45 0 -77.5 -16t-38.5 -44.5l-20 -99.5l-18 105l-6 55q28 4 52 11q59 18 110 18q89 0 141 -46
q49 -43 49 -115zM239 42q0 -22 -16 -37t-37 -15q-22 0 -37.5 15t-15.5 37q0 21 15.5 36.5t37.5 15.5q21 0 37 -15.5t16 -36.5z" />
    <glyph glyph-name="at" unicode="@" horiz-adv-x="682" 
d="M682 363q0 -2 -9 -20.5t-9 -27.5t5.5 -22.5t5.5 -18.5q0 -20 -21 -33q-24 -16 -29 -30q-1 -3 -1 -33q0 -36 -31 -44q-41 -11 -51 -28q-5 -18 -11 -35t-35 -17q-12 0 -51.5 13t-51.5 13q-7 0 -14.5 -7t-7.5 -14q0 -20 53 -49l-6 -10q-37 8 -81 8q-33 0 -82 -8l-4 10
q52 32 52 47q0 8 -9.5 15.5t-17.5 7.5q-12 0 -52.5 -11.5t-57.5 -11.5q-18 0 -30 35t-32.5 40t-29.5 9q-18 8 -21 21v40q0 24 -23 35t-23 40q0 10 5 22.5t5 16.5q0 3 -8.5 23t-8.5 28q0 11 10 27.5t10 28.5q0 5 -1.5 15.5t-1.5 15.5q0 20 8 30l23 20t17 28q9 23 13 29
t16 13.5t19 7.5q8 0 15 -8t7 -17q0 -16 -21 -37.5t-22 -28.5l-3 -31q-1 -5 -10.5 -18.5t-9.5 -27.5q0 -7 4.5 -18.5t4.5 -17.5t-5.5 -18t-5.5 -18q0 -12 14.5 -26.5t16.5 -22.5q-1 5 -1 -26q0 -14 10.5 -18t21.5 -7q20 -6 25.5 -33.5t28.5 -27.5q3 0 10 3.5t10 3.5
q16 0 25 -23q16 -40 18 -42q14 -23 43 -23q40 0 40 57q0 22 -14 42q-11 16 -42 27q-40 14 -47 18q-18 11 -35 25q-20 17 -41 55t-21 62q0 8 4 23q5 19 6 24q5 36 38 73q28 33 61 48q0 22 -67 139q5 7 17 7q9 0 22 -5l34 -97q4 -14 14 -39q2 -3 11 -12q13 6 13 12q0 9 -17 66
q-14 51 -21 69q7 5 21 5q7 0 24 -3q6 -145 27 -145q19 0 17 19l-10 122q3 7 16 7q15 0 21 -5q-11 -110 -11 -127q0 -18 16 -18q12 0 22 64l10 79q12 7 47 7l-46 -138q6 -15 15 -15q15 0 65 148q6 5 18 5q13 0 22 -5q-66 -97 -74 -140q103 -63 103 -162q0 -46 -28.5 -86.5
t-72.5 -61.5l-70 -28q-34 -20 -34 -67q0 -20 13 -35t32 -15q33 0 49.5 43t35.5 43q5 0 15 -2t15 -2q13 0 17 13q1 11 3.5 24.5t29.5 22t27 22.5q0 4 -1.5 12t-1.5 12q0 13 18 27t18 25q0 2 -7.5 15t-7.5 23q0 9 7.5 22.5t7.5 15.5q0 6 -14 27q-5 8 -5 42q0 16 -22 33t-22 35
q0 9 9 20t18 11t23 -14t17 -23q3 -13 14 -37q2 -3 24 -19q13 -10 13 -29q0 -6 -1.5 -18.5t-1.5 -18.5q0 -16 9 -32.5t9 -28.5zM652 360q0 123 -72 200q-7 7 -13 1q-7 -6 1 -16q67 -71 67 -183q0 -126 -117 -216l-53 -34q-14 -9 -14 -18q0 -8 24 -8q19 0 58 35q29 27 50 53
q69 87 69 186zM534 379l-4 13q-2 1 -16 1t-32 31q36 22 36 32q0 4 -8 13.5t-12 9.5q-3 0 -20 -15t-20 -15q-8 0 -31 30q43 26 43 34q0 6 -9.5 11.5t-16.5 5.5q-10 0 -39 -28q-27 15 -34 15q-15 0 -15 -14q0 -6 14 -17l-35 -32l-35 30q15 11 15 19q0 5 -5 10t-10 5
q-6 0 -27 -14q-38 23 -51 23q-6 0 -12.5 -6.5t-6.5 -12.5q16 -13 44 -30l-36 -27q-35 23 -41 23q-13 0 -13 -22l33 -28q-13 -10 -26 -19q-22 -16 -22 -19q0 -8 65 -64q-9 -16 -9 -22q0 -7 17 -7q7 0 19 2l56 -56l45 52l51 -54q56 58 142 130q6 5 6 12zM228 95v14
q-177 98 -177 258q0 87 40 150q1 1 16 20.5t15 20.5q0 9 -11 9l-14 -17q-69 -85 -69 -194q0 -46 18 -94.5t72 -107.5q59 -66 97 -66q7 0 13 7zM486 374l-39 -32l-28 32l37 32zM433 428l-35 -32l-37 34l35 32zM373 372l-38 -32l-33 36l35 34zM422 322l-39 -41l-26 39l34 35z
M306 434l-32 -37l-38 31l37 34zM317 317l-34 -33l-36 39l32 30zM258 374l-33 -32l-42 36l33 31z" />
    <glyph glyph-name="A" unicode="A" horiz-adv-x="792" 
d="M802 -10q-100 10 -124 10q-25 0 -122 -10q40 30 40 44q0 24 -16 61l-38 87h-356l-38 -91q-18 -47 -18 -55q0 -24 52 -46q-66 10 -93 10t-99 -10q55 27 73 48q13 14 41 73l294 620l294 -622q14 -28 39 -68q21 -22 71 -51zM522 226l-150 353l-166 -353h316z" />
    <glyph glyph-name="B" unicode="B" horiz-adv-x="499" 
d="M469 211q0 -118 -78 -176q-55 -42 -126 -42q-27 0 -71 3.5t-58 3.5q-21 0 -117 -10q37 17 49 27q22 18 22 45v549q0 48 -11 63t-59 32l114 -6q5 0 43.5 3.5t65.5 3.5q73 0 120 -35q61 -44 61 -137q0 -45 -30.5 -87.5t-73.5 -57.5q62 -18 105.5 -67t43.5 -112zM332 540
q0 137 -108 137q-20 0 -34 -4v-280q29 -2 42 -2q54 0 80 50q20 39 20 99zM232 368q-16 0 -42 -3v-341q22 -7 47 -7q46 0 80 30q51 47 51 153q0 81 -35.5 124.5t-100.5 43.5z" />
    <glyph glyph-name="C" unicode="C" horiz-adv-x="729" 
d="M679 183q-5 -47 -15 -112q-3 -17 -16 -56q-13 -4 -29 -10q-20 -8 -68 -18q-61 -11 -116 -11q-208 0 -316 119q-89 98 -89 248q0 181 120 288q104 93 244 93q42 0 123.5 -16t118.5 -32q7 -3 12 -7q0 -47 -1 -60q-2 -20 -13 -103q-21 118 -50 138q-24 17 -74 33
q-61 19 -112 19q-116 0 -191 -95q-71 -90 -71 -218q0 -176 75 -274q78 -103 229 -103q130 0 185 63q30 35 54 114z" />
    <glyph glyph-name="D" unicode="D" horiz-adv-x="711" 
d="M681 343q0 -156 -91 -253q-96 -103 -265 -103q-51 0 -119.5 6.5l-68.5 6.5q-67 0 -127 -10q43 22 58 37q22 23 22 63v539q0 29 -13.5 44.5t-63.5 36.5q102 -10 127 -10q9 0 85 4t106 4q140 0 232 -75q118 -95 118 -290zM574 318q0 173 -70 270q-65 92 -171 92
q-55 0 -143 -11v-642q64 -13 129 -13q102 0 170 65q85 80 85 239z" />
    <glyph glyph-name="E" unicode="E" horiz-adv-x="428" 
d="M408 82q7 -36 -6 -58t-15 -24q-9 -10 -28 -10q-27 0 -115.5 5t-105.5 5q-38 0 -116 -10q42 21 54 35q14 18 14 59v547q0 30 -19 48q-14 13 -54 31q102 -10 121 -10q11 0 78 3t77 3q17 0 25 -8l15 -23q8 -13 13 -71q-15 33 -27 44t-39 18q-11 3 -90 2v-286h77q65 0 77 67
q-5 -58 -5 -84q0 -15 8 -72q-24 52 -80 52h-77v-316h83q55 0 79 6q45 11 56 47z" />
    <glyph glyph-name="F" unicode="F" horiz-adv-x="411" 
d="M386 606q-15 34 -33 46q-22 16 -69 16h-94v-267h97q58 0 84 48q-5 -52 -5 -67t5 -69q-22 35 -33 42q-14 8 -53 8h-95v-289q0 -36 17 -53q1 0 49 -31q-92 10 -115 10q-33 0 -120 -10q41 17 55 33.5t14 50.5v556q0 28 -9 41q-13 17 -58 39q96 -10 115 -10q10 0 101.5 2
t101.5 2q42 0 45 -98z" />
    <glyph glyph-name="G" unicode="G" horiz-adv-x="737" 
d="M726 306q-83 -38 -83 -62v-245h-52q5 0 -53 -9.5t-121 -9.5q-211 0 -314 138q-73 99 -73 227q0 158 98 265q104 114 268 114q94 0 202 -52q16 -4 48 -16q1 -30 0 -46q-2 -19 -12 -94q-13 57 -36 89q-11 15 -37 34q-73 55 -169 55q-106 0 -181.5 -91t-75.5 -229
q0 -158 69 -257q74 -108 208 -108q55 0 128 22v216q0 25 -84 61q111 -10 131 -10q21 0 139 8z" />
    <glyph glyph-name="H" unicode="H" horiz-adv-x="727" 
d="M708 -15q-98 15 -122 15q-37 0 -110 -17q38 27 43 32q18 18 18 45v304h-347v-298q0 -33 22 -50q9 -7 53 -26q-99 10 -124 10q-43 0 -129 -10q78 33 78 79v561q0 32 -15 49q-12 14 -48 31q94 -10 114 -10t106 10q-38 -25 -43 -32q-14 -15 -14 -48v-224h347v218
q0 40 -17 55l-51 30q97 -9 117 -9q19 0 106 8q-40 -26 -47.5 -37t-7.5 -47v-562q0 -30 19 -46z" />
    <glyph glyph-name="I" unicode="I" horiz-adv-x="280" 
d="M251 -10q-78 10 -112 10q-28 0 -115 -10q66 32 66 69v579q0 38 -64 72q98 -10 113 -10t110 10q-59 -34 -59 -72v-579q0 -37 61 -69z" />
    <glyph glyph-name="J" unicode="J" horiz-adv-x="277" 
d="M248 709q-58 -29 -58 -82v-571q0 -79 -47 -150q-58 -85 -155 -97q59 28 80.5 73t21.5 148v597q0 53 -68 82q103 -9 119 -9t107 9z" />
    <glyph glyph-name="K" unicode="K" horiz-adv-x="701" 
d="M721 -10q-96 0 -141 11q-69 17 -120.5 74.5l-174.5 203.5l-92 109l207 223q47 54 47 61q0 11 -16 31q49 -3 68 -3q23 0 130 8q-88 -18 -142.5 -68.5t-203.5 -220.5q151 -202 258 -315q51 -54 81 -76q46 -33 94 -38h5zM260 -10q-95 10 -120 10q-13 0 -119 -10q69 39 69 71
v558q0 48 -16 66q-6 6 -45 25q92 -10 112 -10t105 10l-37 -31q-19 -22 -19 -57v-560q0 -35 70 -72z" />
    <glyph glyph-name="L" unicode="L" horiz-adv-x="487" 
d="M477 114l-36 -84q-14 -23 -18 -28q-11 -11 -30 -11q-34 0 -124.5 4.5t-130.5 4.5q-39 0 -120 -10q38 20 52 33q20 20 20 51v550q0 57 -75 87q104 -11 122 -11q19 0 133 10q-80 -27 -80 -86v-590q45 -4 84 -4q117 0 141 19q21 17 62 65z" />
    <glyph glyph-name="M" unicode="M" horiz-adv-x="1028" 
d="M1018 -10q-84 10 -106 10q-20 0 -152 -10q48 39 48 56q0 55 -3 76l-59 411l-253 -570l-268 585l-78 -422q-10 -54 -10 -79q0 -11 32 -33q28 -19 46 -25q-91 11 -112 11q-11 0 -93 -10l37 22q16 11 25 33q11 26 23 85l90 459q4 21 4 32q0 15 -28 43t-66 45q103 -9 125 -9
q16 0 71 7q0 -61 23 -110l208 -446l188 412q31 68 31 79q0 27 -69 65l137 -7q15 0 123 10q-91 -40 -91 -69q0 -15 5 -55l60 -456q15 -111 112 -140z" />
    <glyph glyph-name="N" unicode="N" horiz-adv-x="763" 
d="M741 710q-52 -27 -55 -30q-18 -17 -18 -65v-675l-522 624v-484q0 -38 15 -55q12 -15 58 -35q-81 10 -100 10q-18 0 -114 -11q85 39 85 85v539q0 40 -32 63l-62 34q82 -10 132 -10q18 0 99 7q-18 -16 -18 -40q0 -21 16 -41l52 -61l336 -404v465q0 29 -13 46.5t-53 37.5
q83 -10 100 -10q15 0 94 10z" />
    <glyph glyph-name="O" unicode="O" horiz-adv-x="776" 
d="M746 329q0 -149 -114 -255q-105 -98 -230 -98q-161 0 -265 104q-107 107 -107 277q0 159 108 266q103 101 243 101q177 0 278 -129q87 -112 87 -266zM643 319q0 188 -78 287q-70 89 -184 89q-111 0 -180 -97q-66 -93 -66 -232q0 -171 82 -269q76 -91 195 -91q84 0 154 86
q77 94 77 227z" />
    <glyph glyph-name="P" unicode="P" horiz-adv-x="462" 
d="M442 521q0 -74 -47.5 -127.5t-120.5 -53.5q-32 0 -72 16l1 3q37 -3 53 -3q33 0 60 32q33 40 33 114q0 172 -121 172q-11 0 -38 -3v-608q0 -40 95 -73q-122 10 -146 10q-13 0 -124 -10q75 36 75 70v596q0 24 -65 54q99 -10 111 -10q1 0 36.5 2.5t75.5 2.5q81 0 137.5 -52
t56.5 -132z" />
    <glyph glyph-name="Q" unicode="Q" horiz-adv-x="798" 
d="M1683 -151q-223 -90 -438 -90q-114 0 -215 29q-111 31 -277 117l-210 108q-62 -38 -132 -38q-161 0 -269 99q-112 103 -112 269t104 274q101 107 251 107q177 0 275 -126q85 -111 85 -281q0 -127 -111 -242l141 -79q337 -189 501 -189q240 0 407 42zM643 313
q0 184 -74 286q-70 96 -185 96q-114 0 -183 -98q-64 -93 -64 -235q0 -170 80 -266q76 -90 199 -90q80 0 150 85q77 93 77 222z" />
    <glyph glyph-name="R" unicode="R" horiz-adv-x="688" 
d="M693 -10q-73 -2 -128 10q-74 16 -130 78.5t-176 248.5h-69v-270q0 -34 78 -67q-81 10 -127 10q-39 0 -132 -10q81 31 81 67v585q0 42 -69 68q100 -10 120 -10q9 0 48.5 2.5t63.5 2.5q80 0 135 -54.5t55 -125.5q0 -77 -38 -123q-21 -25 -65 -49q82 -125 126 -184
q102 -135 165 -161q35 -14 59 -18h3zM349 503q0 171 -116 171q-19 0 -43 -4v-313h60q43 0 71 37.5t28 108.5z" />
    <glyph glyph-name="S" unicode="S" horiz-adv-x="438" 
d="M398 187q0 -80 -53 -144q-56 -67 -133 -67q-47 0 -84.5 12t-47.5 12q-8 0 -19 -6q-20 20 -24 141q34 -78 61 -100q35 -30 115 -30q43 0 85 43q39 42 39 81q0 63 -74 133l-137 120q-74 76 -74 154q0 77 46.5 132.5t121.5 55.5q52 0 87 -14q51 -21 68 -25q-7 -42 -7 -57
t-3 -83q-7 41 -24 100q-10 19 -47 36.5t-76 17.5q-49 0 -78.5 -33t-29.5 -75q0 -46 75 -113q132 -119 138 -126q75 -82 75 -165z" />
    <glyph glyph-name="T" unicode="T" horiz-adv-x="640" 
d="M624 576q-14 46 -33 64q-22 21 -67 21h-150v-590q0 -30 26 -52q8 -7 46 -29q-99 10 -123 10t-126 -10q77 42 77 81v590h-152q-58 0 -75 -17q-11 -11 -32 -71q2 41 10 95q20 41 53 40l104 -4q92 -4 143 -4q118 0 237 5q32 1 54 -36q6 -11 8 -93z" />
    <glyph glyph-name="U" unicode="U" horiz-adv-x="730" 
d="M724 710q-84 -32 -84 -79v-548q0 -58 82 -93q-101 10 -124 10q-14 0 -80 -10q21 21 21 77q-112 -77 -204 -77q-113 0 -184 74t-71 204v363q0 43 -82 79q113 -10 132 -10q21 0 119 10q-69 -34 -69 -79v-388q0 -97 53 -154t138 -57q47 0 105 29q48 24 63 43v527
q0 48 -81 79q111 -10 132 -10q19 0 134 10z" />
    <glyph glyph-name="V" unicode="V" horiz-adv-x="813" 
d="M823 710q-51 -19 -76.5 -40.5t-46.5 -64.5l-316 -653l-298 661q-28 61 -96 97q99 -10 126 -10q21 0 114 10q-27 -16 -34 -23q-15 -15 -15 -38q0 -6 94 -216q96 -214 141 -307q256 511 256 529q0 25 -52 55q83 -10 96 -10q21 0 107 10z" />
    <glyph glyph-name="W" unicode="W" horiz-adv-x="1156" 
d="M1166 710q-97 -49 -126 -103l-341 -648l-129 272l-142 -271l-317 659q-30 63 -121 91q129 -10 157 -10q21 0 94 10q-20 -19 -25 -30.5t-5 -35.5q0 -15 245 -522l87 164l-165 345q-18 37 -82 79q90 -10 119 -10q20 0 100 10q-37 -23 -37 -62q0 -13 121 -256l99 185
q37 69 37 79q0 27 -51 54q77 -10 91 -10q22 0 118 10q-89 -39 -109 -75l-160 -298l103 -214l258 485q8 15 8 30q0 45 -56 72q87 -10 99 -10q22 0 130 10z" />
    <glyph glyph-name="X" unicode="X" horiz-adv-x="745" 
d="M758 710q-36 -17 -74 -54l-42 -44q-19 -18 -58 -60l-156 -188l183 -258q35 -50 57 -71q33 -32 77 -45q-120 10 -144 10q-20 0 -107 -10q24 32 24 49q0 20 -1 24q-4 12 -24 41l-128 184l-149 -182q-44 -54 -44 -77q0 -9 54 -41q-82 12 -117 12q-24 0 -119 -10
q94 33 141 89l207 247l-177 254q-37 54 -59 76q-36 38 -80 54q112 -10 140 -10q25 0 127 10q-52 -24 -52 -56q0 -20 27 -58l137 -194l154 186q24 29 24 72q0 21 -46 49q88 -9 107 -9q20 0 118 10z" />
    <glyph glyph-name="Y" unicode="Y" horiz-adv-x="846" 
d="M856 710q-61 -22 -89 -41q-32 -22 -50 -58l-317 -625q-41 -82 -125 -131q-63 -37 -129 -47q52 22 107 66q61 49 82 92l41 84l-265 588q-10 23 -38 38q-16 8 -83 34q134 -10 161 -10q21 0 111 10q-43 -24 -43 -55q0 -10 216 -489l237 478q0 26 -16 41q-8 7 -41 25
q91 -10 105 -10q21 0 136 10z" />
    <glyph glyph-name="Z" unicode="Z" horiz-adv-x="684" 
d="M680 144q-12 -40 -37 -105q-22 -41 -51 -41q-43 0 -121 1t-123 1h-337l273 387l190 271l-335 1q-24 0 -47 -23q-20 -19 -29 -45q-1 81 16 97t47 16q-6 0 54 -2t168 -2q116 0 275 6l-221 -320q-204 -297 -235 -345q182 -2 191 -2q190 0 212 7q57 18 110 98z" />
    <glyph glyph-name="bracketleft" unicode="[" horiz-adv-x="240" 
d="M230 -127h-190v927h190v-32h-101v-863h101v-32z" />
    <glyph glyph-name="backslash" unicode="\" horiz-adv-x="394" 
d="M414 -93h-64l-339 812h63z" />
    <glyph glyph-name="bracketright" unicode="]" horiz-adv-x="240" 
d="M200 -127h-190v32h101v864h-101v31h190v-927z" />
    <glyph glyph-name="asciicircum" unicode="^" horiz-adv-x="1000" 
d="M797 438h-55l-243 182l-243 -182h-55l241 276h115z" />
    <glyph glyph-name="underscore" unicode="_" horiz-adv-x="450" 
d="M450 -200h-450v24h450v-24z" />
    <glyph glyph-name="grave" unicode="`" 
d="M453 750h-4l-159 60q-34 13 -34 39q0 39 47 39q33 0 52 -22z" />
    <glyph glyph-name="a" unicode="a" horiz-adv-x="733" 
d="M743 -10q-100 10 -124 10q-25 0 -122 -10q40 30 40 44q0 33 -11.5 62.5l-33.5 85.5h-309l-35 -91q-18 -47 -18 -55q0 -7 18 -23t34 -23q-66 10 -93 10t-99 -10q55 27 73 48q13 14 41 73l265 621l263 -623q17 -27 46 -68q18 -19 65 -51zM475 226l-136 336l-138 -336h274z
" />
    <glyph glyph-name="b" unicode="b" horiz-adv-x="499" 
d="M469 211q0 -118 -78 -176q-55 -42 -126 -42q-27 0 -71 3.5t-58 3.5q-21 0 -117 -10q37 17 49 27q22 18 22 45v549q0 48 -11 63t-59 32l114 -6q5 0 43.5 3.5t65.5 3.5q73 0 120 -35q61 -44 61 -137q0 -45 -30.5 -87.5t-73.5 -57.5q62 -18 105.5 -67t43.5 -112zM332 540
q0 137 -108 137q-20 0 -34 -4v-280q29 -2 42 -2q48 0 74 40t26 109zM368 200q0 81 -35.5 124.5t-100.5 43.5q-16 0 -42 -3v-341q22 -7 47 -7q46 0 80 30q51 47 51 153z" />
    <glyph glyph-name="c" unicode="c" horiz-adv-x="729" 
d="M679 183q-5 -47 -15 -112q-3 -17 -16 -56q-13 -4 -29 -10q-20 -8 -68 -18q-61 -11 -116 -11q-208 0 -316 119q-89 98 -89 248q0 181 120 288q104 93 244 93q52 0 117 -15l113 -29q14 -4 24 -11q0 -47 -1 -60q-2 -20 -13 -103q-21 118 -50 138q-24 17 -74 33
q-61 19 -112 19q-116 0 -191 -95q-71 -90 -71 -218q0 -176 75 -274q78 -103 229 -103q130 0 185 63q30 35 54 114z" />
    <glyph glyph-name="d" unicode="d" horiz-adv-x="711" 
d="M681 343q0 -156 -91 -253q-96 -103 -265 -103q-51 0 -119.5 6.5l-68.5 6.5q-67 0 -127 -10q43 22 58 37q22 23 22 63v539q0 29 -13.5 44.5t-63.5 36.5q102 -10 127 -10q9 0 85 4t106 4q140 0 232 -75q118 -95 118 -290zM574 318q0 173 -70 270q-65 92 -171 92
q-55 0 -143 -11v-642q64 -13 129 -13q102 0 170 65q85 80 85 239z" />
    <glyph glyph-name="e" unicode="e" horiz-adv-x="428" 
d="M408 82q7 -36 -6 -58t-15 -24q-9 -10 -28 -10q-27 0 -115.5 5t-105.5 5q-38 0 -116 -10q42 21 54 35q14 18 14 59v547q0 30 -19 48q-14 13 -54 31q102 -10 121 -10q11 0 78 3t77 3q17 0 25 -8l15 -23q8 -13 13 -71q-15 33 -27 44t-39 18q-11 3 -90 2v-286h77q65 0 77 67
q-5 -58 -5 -84q0 -15 8 -72q-24 52 -80 52h-77v-316h83q60 0 87 8q38 12 48 45z" />
    <glyph glyph-name="f" unicode="f" horiz-adv-x="411" 
d="M386 606q-15 34 -33 46q-22 16 -69 16h-94v-267h97q58 0 84 48q-5 -52 -5 -67t5 -69q-22 35 -33 42q-14 8 -53 8h-95v-289q0 -36 17 -53q1 0 49 -31q-92 10 -115 10q-33 0 -120 -10q41 17 55 33.5t14 50.5v556q0 28 -9 41q-13 17 -58 39q96 -10 115 -10q10 0 101.5 2
t101.5 2q42 0 45 -98z" />
    <glyph glyph-name="g" unicode="g" horiz-adv-x="737" 
d="M726 306q-83 -38 -83 -62v-245h-52q5 0 -53 -9.5t-121 -9.5q-211 0 -314 138q-73 99 -73 227q0 158 98 265q104 114 268 114q94 0 202 -52q16 -4 48 -16q1 -30 0 -46q-2 -19 -12 -94q-13 57 -36 89q-11 15 -37 34q-73 55 -169 55q-106 0 -181.5 -91t-75.5 -229
q0 -158 69 -257q74 -108 208 -108q55 0 128 22v216q0 25 -84 61q111 -10 131 -10q21 0 139 8z" />
    <glyph glyph-name="h" unicode="h" horiz-adv-x="727" 
d="M708 -15q-98 15 -122 15q-37 0 -110 -17q38 27 43 32q18 18 18 45v304h-347v-298q0 -33 22 -50q9 -7 53 -26q-99 10 -124 10q-43 0 -129 -10q78 33 78 79v561q0 32 -15 49q-12 14 -48 31q94 -10 114 -10t106 10q-38 -25 -43 -32q-14 -15 -14 -48v-224h347v218
q0 40 -17 55l-51 30q97 -9 117 -9q19 0 106 8q-40 -26 -47.5 -37t-7.5 -47v-562q0 -30 19 -46z" />
    <glyph glyph-name="i" unicode="i" horiz-adv-x="280" 
d="M251 -10q-78 10 -112 10q-28 0 -115 -10q66 32 66 69v579q0 38 -64 72q98 -10 113 -10t110 10q-59 -34 -59 -72v-579q0 -37 61 -69z" />
    <glyph glyph-name="j" unicode="j" horiz-adv-x="277" 
d="M248 709q-58 -29 -58 -82v-571q0 -79 -47 -150q-58 -85 -155 -97q59 28 80.5 73t21.5 148v597q0 53 -68 82q103 -9 119 -9t107 9z" />
    <glyph glyph-name="k" unicode="k" horiz-adv-x="701" 
d="M721 -10q-96 0 -141 11q-69 17 -121 75l-266 312l207 223q47 54 47 61q0 11 -16 31q49 -3 68 -3q23 0 130 8q-88 -18 -142.5 -68.5t-203.5 -220.5q151 -202 258 -315q51 -54 83 -77q47 -33 97 -37zM260 -10q-95 10 -120 10q-13 0 -119 -10q69 39 69 71v558q0 48 -16 66
q-6 6 -45 25q92 -10 112 -10t105 10l-37 -31q-19 -22 -19 -57v-560q0 -35 70 -72z" />
    <glyph glyph-name="l" unicode="l" horiz-adv-x="487" 
d="M477 114l-36 -84q-14 -23 -18 -28q-11 -11 -30 -11q-34 0 -124.5 4.5t-130.5 4.5q-39 0 -120 -10q38 20 52 33q20 20 20 51v550q0 57 -75 87q104 -11 122 -11q19 0 133 10q-80 -27 -80 -86v-590q45 -4 84 -4q117 0 141 19q21 17 62 65z" />
    <glyph glyph-name="m" unicode="m" horiz-adv-x="1028" 
d="M1018 -10q-84 10 -106 10q-20 0 -152 -10q48 39 48 56q0 55 -3 76l-59 411l-253 -570l-268 585l-78 -422q-10 -54 -10 -79q0 -6 21 -25q26 -22 57 -33q-91 11 -112 11q-11 0 -93 -10l37 22q16 11 25 33q11 26 23 85l90 459q4 21 4 32q0 15 -28 43t-66 45q103 -9 125 -9
q16 0 71 7q0 -61 23 -110l208 -446l188 412q31 68 31 79q0 27 -69 65l137 -7q15 0 123 10q-91 -40 -91 -69q0 -15 5 -55l60 -456q15 -111 112 -140z" />
    <glyph glyph-name="n" unicode="n" horiz-adv-x="763" 
d="M741 710q-52 -27 -55 -30q-18 -17 -18 -65v-675l-521 624v-484q0 -38 13.5 -54t58.5 -36q-81 10 -100 10q-18 0 -114 -11q85 39 85 85v539q0 40 -32 63l-62 34q82 -10 132 -10q18 0 99 7q-18 -16 -18 -40q0 -21 16 -41l52 -61l336 -404v465q0 29 -13 46.5t-53 37.5
q83 -10 100 -10q15 0 94 10z" />
    <glyph glyph-name="o" unicode="o" horiz-adv-x="776" 
d="M746 329q0 -149 -114 -255q-105 -98 -230 -98q-161 0 -265 104q-107 107 -107 277q0 159 108 266q103 101 243 101q177 0 278 -129q87 -112 87 -266zM643 319q0 188 -78 287q-70 89 -184 89q-111 0 -180 -97q-66 -93 -66 -232q0 -171 82 -269q76 -91 195 -91q84 0 154 86
q77 94 77 227z" />
    <glyph glyph-name="p" unicode="p" horiz-adv-x="462" 
d="M442 521q0 -74 -47.5 -127.5t-120.5 -53.5q-32 0 -72 16l1 3q37 -3 53 -3q33 0 60 32q33 40 33 114q0 172 -121 172q-11 0 -38 -3v-608q0 -40 95 -73q-122 10 -146 10q-13 0 -124 -10q75 36 75 70v596q0 24 -65 54q99 -10 111 -10q1 0 36.5 2.5t75.5 2.5q81 0 137.5 -52
t56.5 -132z" />
    <glyph glyph-name="q" unicode="q" horiz-adv-x="773" 
d="M828 -68l-105 -46l-196 118q-73 -28 -133 -28q-168 0 -271 119q-93 108 -93 259q0 182 126 285q103 85 235 85q181 0 280 -145q75 -110 75 -238q0 -84 -39 -164q-38 -76 -101 -128zM644 320q0 165 -63 264q-71 111 -207 111q-89 0 -158 -81q-81 -93 -81 -249
q0 -144 62 -242q73 -116 213 -116q97 0 168 101q66 96 66 212z" />
    <glyph glyph-name="r" unicode="r" horiz-adv-x="688" 
d="M693 -10q-73 -2 -128 10q-74 16 -130 78.5t-176 248.5h-69v-270q0 -34 78 -67q-81 10 -127 10q-39 0 -132 -10q81 31 81 67v585q0 42 -69 68q100 -10 120 -10q9 0 48.5 2.5t63.5 2.5q80 0 135 -54.5t55 -125.5q0 -77 -38 -123q-21 -25 -65 -49q82 -125 126 -184
q102 -135 165 -161q35 -14 59 -18h3zM349 503q0 171 -116 171q-19 0 -43 -4v-313h60q43 0 71 37.5t28 108.5z" />
    <glyph glyph-name="s" unicode="s" horiz-adv-x="438" 
d="M398 187q0 -80 -53 -144q-56 -67 -133 -67q-47 0 -84.5 12t-47.5 12q-8 0 -19 -6q-20 20 -24 141q33 -77 62 -101q35 -29 114 -29q43 0 85 43q39 42 39 81q0 63 -74 133l-137 120q-74 76 -74 154q0 77 46.5 132.5t121.5 55.5q57 0 92 -15q52 -22 63 -24q-7 -42 -7 -57
t-3 -83q-7 41 -24 100q-10 19 -47 36.5t-76 17.5q-49 0 -78.5 -33t-29.5 -75q0 -46 75 -113q132 -119 138 -126q75 -82 75 -165z" />
    <glyph glyph-name="t" unicode="t" horiz-adv-x="640" 
d="M624 576q-14 46 -32 63q-22 22 -68 22h-150v-590q0 -30 26 -52q8 -7 46 -29q-99 10 -123 10t-126 -10q77 42 77 81v590h-152q-57 0 -73 -14q-12 -11 -34 -74q2 41 10 95q20 41 53 40l104 -4q92 -4 143 -4q118 0 237 5q32 1 54 -36q6 -11 8 -93z" />
    <glyph glyph-name="u" unicode="u" horiz-adv-x="730" 
d="M724 710q-84 -32 -84 -79v-548q0 -58 82 -93q-101 10 -124 10q-14 0 -80 -10q21 21 21 77q-112 -77 -204 -77q-113 0 -184 74t-71 204v363q0 43 -82 79q113 -10 132 -10q21 0 119 10q-69 -34 -69 -79v-388q0 -97 53 -154t138 -57q47 0 105 29q48 24 63 43v527
q0 48 -81 79q111 -10 132 -10q19 0 134 10z" />
    <glyph glyph-name="v" unicode="v" horiz-adv-x="813" 
d="M823 710q-51 -19 -76.5 -40.5t-46.5 -64.5l-316 -653l-298 661q-28 61 -96 97q99 -10 126 -10q21 0 114 10q-27 -16 -34 -23q-15 -15 -15 -38q0 -6 94 -216q96 -214 141 -307q256 511 256 529q0 25 -52 55q83 -10 96 -10q21 0 107 10z" />
    <glyph glyph-name="w" unicode="w" horiz-adv-x="1156" 
d="M1166 710q-97 -49 -126 -103l-341 -648l-129 272l-142 -271l-317 659q-30 63 -121 91q129 -10 157 -10q21 0 94 10q-20 -19 -25 -30.5t-5 -35.5q0 -15 245 -522l87 164l-165 345q-18 37 -82 79q90 -10 119 -10q20 0 100 10q-37 -23 -37 -62q0 -13 121 -256l99 185
q37 69 37 79q0 27 -51 54q77 -10 91 -10q22 0 118 10q-89 -39 -109 -75l-160 -298l103 -214l258 485q8 15 8 30q0 45 -56 72q87 -10 99 -10q22 0 130 10z" />
    <glyph glyph-name="x" unicode="x" horiz-adv-x="745" 
d="M758 710q-36 -17 -74 -54l-42 -44q-19 -18 -58 -60l-156 -188l183 -258q39 -55 65 -78q29 -26 69 -38q-120 10 -144 10q-20 0 -107 -10q24 32 24 49q0 20 -1 24q-4 12 -24 41l-128 184l-149 -182q-44 -54 -44 -77q0 -9 54 -41q-82 12 -117 12q-24 0 -119 -10
q94 33 141 89l207 247l-177 254q-37 53 -56 73q-38 40 -83 57q112 -10 140 -10q25 0 127 10q-52 -24 -52 -56q0 -20 27 -58l137 -194l154 186q24 29 24 72q0 21 -46 49q88 -9 107 -9q20 0 118 10z" />
    <glyph glyph-name="y" unicode="y" horiz-adv-x="846" 
d="M856 710q-61 -22 -89 -41q-32 -22 -50 -58l-317 -625q-41 -82 -125 -131q-63 -37 -129 -47q46 20 99 60q67 51 90 98l41 84l-265 588q-10 23 -38 38q-16 8 -83 34q134 -10 161 -10q21 0 111 10q-43 -24 -43 -55q0 -10 216 -489l237 478q0 26 -16 41q-8 7 -41 25
q91 -10 105 -10q21 0 136 10z" />
    <glyph glyph-name="z" unicode="z" horiz-adv-x="684" 
d="M680 144q-12 -40 -37 -105q-22 -41 -51 -41q-43 0 -121 1t-123 1h-337l463 658l-335 1q-45 0 -76 -68q-1 81 16 97t47 16q-6 0 54 -2t168 -2q116 0 275 6l-456 -665q182 -2 191 -2q190 0 212 7q57 18 110 98z" />
    <glyph glyph-name="braceleft" unicode="{" horiz-adv-x="349" 
d="M329 -127q-107 0 -147 59q-31 47 -31 157v94q0 87 -16 116q-21 39 -95 46v9q74 7 95 46q16 29 16 116v94q0 105 31 144q38 46 147 46v-10q-57 -1 -73 -50q-9 -28 -9 -120v-65q0 -100 -20 -140q-25 -48 -102 -66q77 -17 102 -65q20 -39 20 -140v-66q0 -99 9 -133
q16 -62 73 -63v-9z" />
    <glyph glyph-name="bar" unicode="|" horiz-adv-x="181" 
d="M116 -191h-51v991h51v-991z" />
    <glyph glyph-name="braceright" unicode="}" horiz-adv-x="350" 
d="M310 345q-74 -7 -95 -46q-16 -29 -16 -116v-94q0 -110 -32 -157q-40 -60 -147 -59v9q56 1 73 63q9 35 9 133v66q0 101 21 140q24 48 101 65q-77 18 -101 66q-21 40 -21 140v65q0 91 -9 120q-16 49 -73 50v10q110 0 147 -46q32 -39 32 -144v-94q0 -86 16 -112
q21 -36 95 -43v-16z" />
    <glyph glyph-name="asciitilde" unicode="~" horiz-adv-x="833" 
d="M747 364q-33 -61 -86.5 -104t-98.5 -43q-50 0 -143 32t-144 32q-100 0 -181 -58v10q40 57 87 99q56 50 95 50q57 0 150.5 -32.5t137.5 -32.5q95 0 183 64v-17z" />
    <glyph glyph-name="Adieresis" unicode="&#xc4;" horiz-adv-x="792" 
d="M802 -10q-100 10 -124 10q-25 0 -122 -10q40 30 40 44q0 24 -16 61l-38 87h-356l-38 -91q-18 -47 -18 -55q0 -24 52 -46q-66 10 -93 10t-99 -10q55 27 73 48q13 14 41 73l294 620l294 -622q14 -28 39 -68q21 -22 71 -51zM522 226l-150 353l-166 -353h316zM526 796
q0 -20 -14 -33t-33 -13t-33 13t-14 33q0 19 14 33t33 14t33 -14t14 -33zM369 796q0 -20 -14 -33t-33 -13t-33 13t-14 33q0 19 14 33t33 14t33 -14t14 -33z" />
    <glyph glyph-name="Aring" unicode="&#xc5;" horiz-adv-x="792" 
d="M802 -10q-100 10 -124 10q-25 0 -122 -10q40 30 40 44q0 24 -16 61l-38 87h-356l-38 -91q-18 -47 -18 -55q0 -24 52 -46q-66 10 -93 10t-99 -10q55 27 73 48q13 14 41 73l294 620l294 -622q14 -28 39 -68q21 -22 71 -51zM522 226l-150 353l-166 -353h316zM484 803
q0 -32 -24.5 -52.5t-60.5 -20.5q-37 0 -62.5 19.5t-25.5 50.5q0 30 24.5 51.5t60.5 21.5q37 0 62.5 -20.5t25.5 -49.5zM437 805q0 42 -42 42q-15 0 -26 -12.5t-11 -32.5q0 -46 41 -46q38 0 38 49z" />
    <glyph glyph-name="Ccedilla" unicode="&#xc7;" horiz-adv-x="729" 
d="M679 183q-5 -47 -15 -112q-3 -17 -16 -56q-13 -4 -29 -10q-50 -21 -164 -25l-30 -39q91 -10 91 -71q0 -39 -49 -67q-42 -24 -85 -24h-42q102 16 102 70q0 62 -51 77q-11 3 -11 4l12 11l42 39q-205 0 -312 113q-92 96 -92 250q0 181 120 288q104 93 244 93q75 0 230 -40
q14 -4 24 -11q0 -47 -1 -60q-2 -20 -13 -103q-21 118 -50 138q-23 16 -74 31q-60 17 -112 17q-116 0 -191 -95q-71 -90 -71 -218q0 -147 75 -253q84 -120 229 -120q133 0 185 59q30 35 54 114z" />
    <glyph glyph-name="Eacute" unicode="&#xc9;" horiz-adv-x="428" 
d="M408 82q7 -36 -6 -58t-15 -24q-9 -10 -28 -10q-27 0 -115.5 5t-105.5 5q-38 0 -116 -10q42 21 54 35q14 18 14 59v547q0 30 -19 48q-14 13 -54 31q102 -10 121 -10q11 0 78 3t77 3q17 0 25 -8l15 -23q8 -13 13 -71q-15 33 -27 44t-39 18q-11 3 -90 2v-286h77q65 0 77 67
q-5 -58 -5 -84q0 -15 8 -72q-24 52 -80 52h-77v-316h83q55 0 79 6q45 11 56 47zM343 849q0 -26 -34 -39l-163 -60l98 116q19 22 52 22q47 0 47 -39z" />
    <glyph glyph-name="Ntilde" unicode="&#xd1;" horiz-adv-x="763" 
d="M741 710q-52 -27 -55 -30q-18 -17 -18 -65v-675l-522 624v-484q0 -38 15 -55q12 -15 58 -35q-81 10 -100 10q-18 0 -114 -11q85 39 85 85v539q0 40 -32 63l-62 34q82 -10 132 -10q18 0 99 7q-18 -16 -18 -40q0 -21 16 -41l52 -61l336 -404v465q0 29 -13 46.5t-53 37.5
q83 -10 100 -10q15 0 94 10zM494 822q0 -21 -15 -45q-18 -29 -43 -29q-18 0 -58 15t-65 15q-28 0 -44.5 -15t-13.5 -15q-3 0 -3 4q0 18 23 46q26 32 55 32q18 0 62 -15t55 -15q24 0 35 15l11 15q1 0 1 -8z" />
    <glyph glyph-name="Odieresis" unicode="&#xd6;" horiz-adv-x="776" 
d="M746 329q0 -149 -114 -255q-105 -98 -230 -98q-161 0 -265 104q-107 107 -107 277q0 159 108 266q103 101 243 101q177 0 278 -129q87 -112 87 -266zM643 319q0 188 -78 287q-70 89 -184 89q-111 0 -180 -97q-66 -93 -66 -232q0 -171 82 -269q76 -91 195 -91q84 0 154 86
q77 94 77 227zM511 796q0 -20 -14 -33t-33 -13t-33 13t-14 33q0 19 14 33t33 14t33 -14t14 -33zM354 796q0 -20 -14 -33t-33 -13t-33 13t-14 33q0 19 14 33t33 14t33 -14t14 -33z" />
    <glyph glyph-name="Udieresis" unicode="&#xdc;" horiz-adv-x="730" 
d="M724 710q-84 -32 -84 -79v-548q0 -58 82 -93q-101 10 -124 10q-14 0 -80 -10q21 21 21 77q-112 -77 -204 -77q-113 0 -184 74t-71 204v363q0 43 -82 79q113 -10 132 -10q21 0 119 10q-69 -34 -69 -79v-388q0 -97 53 -154t138 -57q47 0 105 29q48 24 63 43v527
q0 48 -81 79q111 -10 132 -10q19 0 134 10zM478 796q0 -20 -14 -33t-33 -13t-33 13t-14 33q0 19 14 33t33 14t33 -14t14 -33zM321 796q0 -20 -14 -33t-33 -13t-33 13t-14 33q0 19 14 33t33 14t33 -14t14 -33z" />
    <glyph glyph-name="aacute" unicode="&#xe1;" horiz-adv-x="733" 
d="M743 -10q-100 10 -124 10q-25 0 -122 -10q40 30 40 44q0 33 -11.5 62.5l-33.5 85.5h-309l-35 -91q-18 -47 -18 -55q0 -7 18 -23t34 -23q-66 10 -93 10t-99 -10q55 27 73 48q13 14 41 73l265 621l263 -623q17 -27 46 -68q18 -19 65 -51zM475 226l-136 336l-138 -336h274z
M501 849q0 -26 -34 -39l-163 -60l98 116q19 22 52 22q47 0 47 -39z" />
    <glyph glyph-name="agrave" unicode="&#xe0;" horiz-adv-x="733" 
d="M743 -10q-100 10 -124 10q-25 0 -122 -10q40 30 40 44q0 33 -11.5 62.5l-33.5 85.5h-309l-35 -91q-18 -47 -18 -55q0 -7 18 -23t34 -23q-66 10 -93 10t-99 -10q55 27 73 48q13 14 41 73l265 621l263 -623q17 -27 46 -68q18 -19 65 -51zM475 226l-136 336l-138 -336h274z
M442 750h-4l-159 60q-34 13 -34 39q0 39 47 39q33 0 52 -22z" />
    <glyph glyph-name="acircumflex" unicode="&#xe2;" horiz-adv-x="733" 
d="M743 -10q-100 10 -124 10q-25 0 -122 -10q40 30 40 44q0 33 -11.5 62.5l-33.5 85.5h-309l-35 -91q-18 -47 -18 -55q0 -7 18 -23t34 -23q-66 10 -93 10t-99 -10q55 27 73 48q13 14 41 73l265 621l263 -623q17 -27 46 -68q18 -19 65 -51zM475 226l-136 336l-138 -336h274z
M498 753q0 -4 -6 -4q-21 0 -120 35q-5 2 -11 0l-118 -35q-4 0 -4 3q0 4 10 12l99 83q17 14 20 14l17 -12q1 -1 95 -81q9 -8 18 -15z" />
    <glyph glyph-name="adieresis" unicode="&#xe4;" horiz-adv-x="733" 
d="M743 -10q-100 10 -124 10q-25 0 -122 -10q40 30 40 44q0 33 -11.5 62.5l-33.5 85.5h-309l-35 -91q-18 -47 -18 -55q0 -7 18 -23t34 -23q-66 10 -93 10t-99 -10q55 27 73 48q13 14 41 73l265 621l263 -623q17 -27 46 -68q18 -19 65 -51zM475 226l-136 336l-138 -336h274z
M493 796q0 -20 -14 -33t-33 -13t-33 13t-14 33q0 19 14 33t33 14t33 -14t14 -33zM336 796q0 -20 -14 -33t-33 -13t-33 13t-14 33q0 19 14 33t33 14t33 -14t14 -33z" />
    <glyph glyph-name="atilde" unicode="&#xe3;" horiz-adv-x="733" 
d="M743 -10q-100 10 -124 10q-25 0 -122 -10q40 30 40 44q0 33 -11.5 62.5l-33.5 85.5h-309l-35 -91q-18 -47 -18 -55q0 -7 18 -23t34 -23q-66 10 -93 10t-99 -10q55 27 73 48q13 14 41 73l265 621l263 -623q17 -27 46 -68q18 -19 65 -51zM475 226l-136 336l-138 -336h274z
M496 822q0 -21 -15 -45q-18 -29 -43 -29q-18 0 -58 15t-65 15q-28 0 -44.5 -15t-13.5 -15q-3 0 -3 4q0 18 23 46q26 32 55 32q18 0 62 -15t55 -15q24 0 35 15l11 15q1 0 1 -8z" />
    <glyph glyph-name="aring" unicode="&#xe5;" horiz-adv-x="733" 
d="M743 -10q-100 10 -124 10q-25 0 -122 -10q40 30 40 44q0 33 -11.5 62.5l-33.5 85.5h-309l-35 -91q-18 -47 -18 -55q0 -7 18 -23t34 -23q-66 10 -93 10t-99 -10q55 27 73 48q13 14 41 73l265 621l263 -623q17 -27 46 -68q18 -19 65 -51zM475 226l-136 336l-138 -336h274z
M455 807q0 -32 -24.5 -52.5t-60.5 -20.5q-37 0 -62.5 19.5t-25.5 50.5q0 30 24.5 51.5t60.5 21.5q37 0 62.5 -20.5t25.5 -49.5zM408 809q0 42 -42 42q-15 0 -26 -12.5t-11 -32.5q0 -46 41 -46q38 0 38 49z" />
    <glyph glyph-name="ccedilla" unicode="&#xe7;" horiz-adv-x="729" 
d="M679 183q-5 -47 -15 -112q-3 -17 -16 -56q-61 -31 -193 -35l-30 -39q91 -10 91 -71q0 -39 -49 -67q-42 -24 -85 -24h-42q102 16 102 70q0 62 -51 77q-11 3 -11 4l12 11l42 39q-205 0 -312 113q-92 96 -92 250q0 181 120 288q104 93 244 93q75 0 230 -40q14 -4 24 -11
q0 -47 -1 -60q-2 -20 -13 -103q-21 118 -50 138q-23 16 -74 31q-60 17 -112 17q-116 0 -191 -95q-71 -90 -71 -218q0 -147 75 -253q84 -120 229 -120q133 0 185 59q30 35 54 114z" />
    <glyph glyph-name="eacute" unicode="&#xe9;" horiz-adv-x="428" 
d="M408 82q7 -36 -6 -58t-15 -24q-9 -10 -28 -10q-27 0 -115.5 5t-105.5 5q-38 0 -116 -10q42 21 54 35q14 18 14 59v547q0 30 -19 48q-14 13 -54 31q102 -10 121 -10q11 0 78 3t77 3q17 0 25 -8l15 -23q8 -13 13 -71q-15 33 -27 44t-39 18q-11 3 -90 2v-286h77q65 0 77 67
q-5 -58 -5 -84q0 -15 8 -72q-24 52 -80 52h-77v-316h83q60 0 87 8q38 12 48 45zM343 849q0 -26 -34 -39l-163 -60l98 116q19 22 52 22q47 0 47 -39z" />
    <glyph glyph-name="egrave" unicode="&#xe8;" horiz-adv-x="428" 
d="M408 82q7 -36 -6 -58t-15 -24q-9 -10 -28 -10q-27 0 -115.5 5t-105.5 5q-38 0 -116 -10q42 21 54 35q14 18 14 59v547q0 30 -19 48q-14 13 -54 31q102 -10 121 -10q11 0 78 3t77 3q17 0 25 -8l15 -23q8 -13 13 -71q-15 33 -27 44t-39 18q-11 3 -90 2v-286h77q65 0 77 67
q-5 -58 -5 -84q0 -15 8 -72q-24 52 -80 52h-77v-316h83q60 0 87 8q38 12 48 45zM240 750h-4l-159 60q-34 13 -34 39q0 39 47 39q33 0 52 -22z" />
    <glyph glyph-name="ecircumflex" unicode="&#xea;" horiz-adv-x="428" 
d="M408 82q7 -36 -6 -58t-15 -24q-9 -10 -28 -10q-27 0 -115.5 5t-105.5 5q-38 0 -116 -10q42 21 54 35q14 18 14 59v547q0 30 -19 48q-14 13 -54 31q102 -10 121 -10q11 0 78 3t77 3q17 0 25 -8l15 -23q8 -13 13 -71q-15 33 -27 44t-39 18q-11 3 -90 2v-286h77q65 0 77 67
q-5 -58 -5 -84q0 -15 8 -72q-24 52 -80 52h-77v-316h83q60 0 87 8q38 12 48 45zM313 753q0 -4 -6 -4q-21 0 -120 35q-5 2 -11 0l-118 -35q-4 0 -4 3q0 4 10 12l99 83q17 14 20 14l17 -12q1 -1 95 -81q9 -8 18 -15z" />
    <glyph glyph-name="edieresis" unicode="&#xeb;" horiz-adv-x="428" 
d="M408 82q7 -36 -6 -58t-15 -24q-9 -10 -28 -10q-27 0 -115.5 5t-105.5 5q-38 0 -116 -10q42 21 54 35q14 18 14 59v547q0 30 -19 48q-14 13 -54 31q102 -10 121 -10q11 0 78 3t77 3q17 0 25 -8l15 -23q8 -13 13 -71q-15 33 -27 44t-39 18q-11 3 -90 2v-286h77q65 0 77 67
q-5 -58 -5 -84q0 -15 8 -72q-24 52 -80 52h-77v-316h83q60 0 87 8q38 12 48 45zM311 796q0 -20 -14 -33t-33 -13t-33 13t-14 33q0 19 14 33t33 14t33 -14t14 -33zM154 796q0 -20 -14 -33t-33 -13t-33 13t-14 33q0 19 14 33t33 14t33 -14t14 -33z" />
    <glyph glyph-name="iacute" unicode="&#xed;" horiz-adv-x="280" 
d="M251 -10q-78 10 -112 10q-28 0 -115 -10q66 32 66 69v579q0 38 -64 72q98 -10 113 -10t110 10q-59 -34 -59 -72v-579q0 -37 61 -69zM315 849q0 -26 -34 -39l-163 -60l98 116q19 22 52 22q47 0 47 -39z" />
    <glyph glyph-name="igrave" unicode="&#xec;" horiz-adv-x="280" 
d="M251 -10q-78 10 -112 10q-28 0 -115 -10q66 32 66 69v579q0 38 -64 72q98 -10 113 -10t110 10q-59 -34 -59 -72v-579q0 -37 61 -69zM180 750h-4l-159 60q-34 13 -34 39q0 39 47 39q33 0 52 -22z" />
    <glyph glyph-name="icircumflex" unicode="&#xee;" horiz-adv-x="280" 
d="M251 -10q-78 10 -112 10q-28 0 -115 -10q66 32 66 69v579q0 38 -64 72q98 -10 113 -10t110 10q-59 -34 -59 -72v-579q0 -37 61 -69zM271 753q0 -4 -6 -4q-21 0 -120 35q-5 2 -11 0l-118 -35q-4 0 -4 3q0 4 10 12l99 83q17 14 20 14l17 -12q1 -1 95 -81q9 -8 18 -15z" />
    <glyph glyph-name="idieresis" unicode="&#xef;" horiz-adv-x="280" 
d="M251 -10q-78 10 -112 10q-28 0 -115 -10q66 32 66 69v579q0 38 -64 72q98 -10 113 -10t110 10q-59 -34 -59 -72v-579q0 -37 61 -69zM268 796q0 -20 -14 -33t-33 -13t-33 13t-14 33q0 19 14 33t33 14t33 -14t14 -33zM111 796q0 -20 -14 -33t-33 -13t-33 13t-14 33
q0 19 14 33t33 14t33 -14t14 -33z" />
    <glyph glyph-name="ntilde" unicode="&#xf1;" horiz-adv-x="763" 
d="M741 710q-52 -27 -55 -30q-18 -17 -18 -65v-675l-521 624v-484q0 -38 13.5 -54t58.5 -36q-81 10 -100 10q-18 0 -114 -11q85 39 85 85v539q0 40 -32 63l-62 34q82 -10 132 -10q18 0 99 7q-18 -16 -18 -40q0 -21 16 -41l52 -61l336 -404v465q0 29 -13 46.5t-53 37.5
q83 -10 100 -10q15 0 94 10zM494 822q0 -21 -15 -45q-18 -29 -43 -29q-18 0 -58 15t-65 15q-28 0 -44.5 -15t-13.5 -15q-3 0 -3 4q0 18 23 46q26 32 55 32q18 0 62 -15t55 -15q24 0 35 15l11 15q1 0 1 -8z" />
    <glyph glyph-name="oacute" unicode="&#xf3;" horiz-adv-x="776" 
d="M746 329q0 -149 -114 -255q-105 -98 -230 -98q-161 0 -265 104q-107 107 -107 277q0 159 108 266q103 101 243 101q177 0 278 -129q87 -112 87 -266zM643 319q0 188 -78 287q-70 89 -184 89q-111 0 -180 -97q-66 -93 -66 -232q0 -171 82 -269q76 -91 195 -91q84 0 154 86
q77 94 77 227zM508 849q0 -26 -34 -39l-163 -60l98 116q19 22 52 22q47 0 47 -39z" />
    <glyph glyph-name="ograve" unicode="&#xf2;" horiz-adv-x="776" 
d="M746 329q0 -149 -114 -255q-105 -98 -230 -98q-161 0 -265 104q-107 107 -107 277q0 159 108 266q103 101 243 101q177 0 278 -129q87 -112 87 -266zM643 319q0 188 -78 287q-70 89 -184 89q-111 0 -180 -97q-66 -93 -66 -232q0 -171 82 -269q76 -91 195 -91q84 0 154 86
q77 94 77 227zM453 750h-4l-159 60q-34 13 -34 39q0 39 47 39q33 0 52 -22z" />
    <glyph glyph-name="ocircumflex" unicode="&#xf4;" horiz-adv-x="776" 
d="M746 329q0 -149 -114 -255q-105 -98 -230 -98q-161 0 -265 104q-107 107 -107 277q0 159 108 266q103 101 243 101q177 0 278 -129q87 -112 87 -266zM643 319q0 188 -78 287q-70 89 -184 89q-111 0 -180 -97q-66 -93 -66 -232q0 -171 82 -269q76 -91 195 -91q84 0 154 86
q77 94 77 227zM516 753q0 -4 -6 -4q-21 0 -120 35q-5 2 -11 0l-118 -35q-4 0 -4 3q0 4 10 12l99 83q17 14 20 14l17 -12q1 -1 95 -81q9 -8 18 -15z" />
    <glyph glyph-name="odieresis" unicode="&#xf6;" horiz-adv-x="776" 
d="M746 329q0 -149 -114 -255q-105 -98 -230 -98q-161 0 -265 104q-107 107 -107 277q0 159 108 266q103 101 243 101q177 0 278 -129q87 -112 87 -266zM643 319q0 188 -78 287q-70 89 -184 89q-111 0 -180 -97q-66 -93 -66 -232q0 -171 82 -269q76 -91 195 -91q84 0 154 86
q77 94 77 227zM511 796q0 -20 -14 -33t-33 -13t-33 13t-14 33q0 19 14 33t33 14t33 -14t14 -33zM354 796q0 -20 -14 -33t-33 -13t-33 13t-14 33q0 19 14 33t33 14t33 -14t14 -33z" />
    <glyph glyph-name="otilde" unicode="&#xf5;" horiz-adv-x="776" 
d="M746 329q0 -149 -114 -255q-105 -98 -230 -98q-161 0 -265 104q-107 107 -107 277q0 159 108 266q103 101 243 101q177 0 278 -129q87 -112 87 -266zM643 319q0 188 -78 287q-70 89 -184 89q-111 0 -180 -97q-66 -93 -66 -232q0 -171 82 -269q76 -91 195 -91q84 0 154 86
q77 94 77 227zM512 822q0 -21 -15 -45q-18 -29 -43 -29q-18 0 -58 15t-65 15q-28 0 -44.5 -15t-13.5 -15q-3 0 -3 4q0 18 23 46q26 32 55 32q18 0 62 -15t55 -15q24 0 35 15l11 15q1 0 1 -8z" />
    <glyph glyph-name="uacute" unicode="&#xfa;" horiz-adv-x="730" 
d="M724 710q-84 -32 -84 -79v-548q0 -58 82 -93q-101 10 -124 10q-14 0 -80 -10q21 21 21 77q-112 -77 -204 -77q-113 0 -184 74t-71 204v363q0 43 -82 79q113 -10 132 -10q21 0 119 10q-69 -34 -69 -79v-388q0 -97 53 -154t138 -57q47 0 105 29q48 24 63 43v527
q0 48 -81 79q111 -10 132 -10q19 0 134 10zM508 849q0 -26 -34 -39l-163 -60l98 116q19 22 52 22q47 0 47 -39z" />
    <glyph glyph-name="ugrave" unicode="&#xf9;" horiz-adv-x="730" 
d="M724 710q-84 -32 -84 -79v-548q0 -58 82 -93q-101 10 -124 10q-14 0 -80 -10q21 21 21 77q-112 -77 -204 -77q-113 0 -184 74t-71 204v363q0 43 -82 79q113 -10 132 -10q21 0 119 10q-69 -34 -69 -79v-388q0 -97 53 -154t138 -57q47 0 105 29q48 24 63 43v527
q0 48 -81 79q111 -10 132 -10q19 0 134 10zM388 750h-4l-159 60q-34 13 -34 39q0 39 47 39q33 0 52 -22z" />
    <glyph glyph-name="ucircumflex" unicode="&#xfb;" horiz-adv-x="730" 
d="M724 710q-84 -32 -84 -79v-548q0 -58 82 -93q-101 10 -124 10q-14 0 -80 -10q21 21 21 77q-112 -77 -204 -77q-113 0 -184 74t-71 204v363q0 43 -82 79q113 -10 132 -10q21 0 119 10q-69 -34 -69 -79v-388q0 -97 53 -154t138 -57q47 0 105 29q48 24 63 43v527
q0 48 -81 79q111 -10 132 -10q19 0 134 10zM486 753q0 -4 -6 -4q-21 0 -120 35q-5 2 -11 0l-118 -35q-4 0 -4 3q0 4 10 12l99 83q17 14 20 14l17 -12q1 -1 95 -81q9 -8 18 -15z" />
    <glyph glyph-name="udieresis" unicode="&#xfc;" horiz-adv-x="730" 
d="M724 710q-84 -32 -84 -79v-548q0 -58 82 -93q-101 10 -124 10q-14 0 -80 -10q21 21 21 77q-112 -77 -204 -77q-113 0 -184 74t-71 204v363q0 43 -82 79q113 -10 132 -10q21 0 119 10q-69 -34 -69 -79v-388q0 -97 53 -154t138 -57q47 0 105 29q48 24 63 43v527
q0 48 -81 79q111 -10 132 -10q19 0 134 10zM478 796q0 -20 -14 -33t-33 -13t-33 13t-14 33q0 19 14 33t33 14t33 -14t14 -33zM321 796q0 -20 -14 -33t-33 -13t-33 13t-14 33q0 19 14 33t33 14t33 -14t14 -33z" />
    <glyph glyph-name="dagger" unicode="&#x2020;" horiz-adv-x="565" 
d="M537 343q-29 15 -81 32l-153 19l36 -494q2 -27 23 -66q-39 9 -82 9q-39 0 -77 -5q10 15 23 62l38 494l-171 -19q-21 -2 -72 -31q12 27 12 70q0 40 -12 68q23 -13 62 -28l182 -23l-25 207q-2 16 -26 94q28 -7 68 -7t68 8q-12 -39 -26 -95l-23 -207l165 23q15 2 71 28
q-6 -28 -6 -67q0 -43 6 -72z" />
    <glyph glyph-name="degree" unicode="&#xb0;" horiz-adv-x="697" 
d="M697 244q0 -43 -30 -69q-25 -22 -57 -22q-7 0 -22 2q-9 2 -11 -1l7 -13t7 -21q0 -11 3 -15t13 -11.5t10 -15.5q0 -35 -32 -35q-11 0 -21 10t-10 20t14 23.5t14 14.5q0 34 -28 47q-75 34 -118 82q-14 16 -40 59q-7 12 -8 12q-2 0 -9 -15l-20 -45q-11 -21 -32 -50
q-11 -16 -11 -17q0 -3 32.5 -30t32.5 -60q0 -31 -21.5 -49t-45.5 -18q-26 0 -43 11.5t-23 11.5q-1 0 -27 -25t-59 -25q-25 0 -49 19.5t-24 44.5q0 32 20 54.5t59 22.5q10 0 10 7q0 11 -11.5 25t-11.5 43q0 25 25 44q22 16 43 16q34 0 49 -22q8 -11 15 -39q5 -22 13 -22
q7 0 15 11q39 55 58 101q6 14 6 26q0 27 -5 46q-3 11 -15 14q-18 5 -30 10q-21 10 -38 27q-42 42 -52 103q-1 7 -14.5 13.5t-34.5 6.5q-23 0 -23 -7q0 -3 4.5 -11t6.5 -13q5 -20 13 -43q25 -20 25 -44q0 -15 -11 -24t-25 -9q-13 0 -24.5 7.5t-11.5 19.5q0 26 18 33t18 12
q0 16 -11 45t-32 29q-45 0 -81.5 -42.5t-46.5 -102.5q-2 -1 -9 -2q0 13 8 39q39 126 177 126q16 0 26 14q7 12 21 32q6 8 2 12q-14 14 -14 30q0 13 11.5 22.5t23.5 9.5q36 0 36 -34q0 -24 -22 -32q-27 -10 -31.5 -17.5l-18.5 -29.5q-4 -7 3 -10q77 -31 124 -94
q10 -13 31 -51q9 -16 13 -14q21 7 57 21q8 4 8 12q0 3 -17.5 19t-17.5 37q0 25 14 42t37 17q28 0 43 -25t24 -25q-1 0 19 11.5t38 11.5q23 0 37 -15.5t14 -37.5q0 -43 -40 -56q-14 2 -44 -5q-6 -4 -5 -14q2 -28 2 -22q0 -44 -54 -44q-47 0 -49 45q0 6 3 14t3 13q0 11 -8 11
q-5 0 -14 -4q-13 -6 -43 -18q-11 -4 -9 -16q0 -14 3 -37q9 -33 45 -77q39 -48 66 -48q11 0 21 8.5t12 16.5q3 12 7 23.5t20 11.5q22 0 22 -24q0 -12 -17 -17l-23 -6q-28 -14 -28 -23q0 -13 37 -28q33 -12 50 -12q37 0 61 23t24 56q0 46 -36 46q-24 0 -24 -20q0 -14 9 -14
q2 0 4 4.5t6 4.5q10 0 10 -9q0 -15 -16 -15q-7 0 -14.5 9t-7.5 17q0 31 33 31q20 0 32.5 -15.5t12.5 -35.5zM365 402q1 1 -4 14q-24 65 -80 98l-20 12q-5 0 -5 -10q0 -28 27.5 -62t60.5 -47q19 -7 21 -5z" />
    <glyph glyph-name="cent" unicode="&#xa2;" horiz-adv-x="440" 
d="M440 25q0 -3 -25 -8t-48 -5q-142 0 -208 122q-11 21 -17 44q-4 17 -6 17q-42 0 -71 -33.5t-29 -76.5q0 -31 20.5 -53t47.5 -22q30 0 30 19q0 14 -15.5 19t-15.5 18q0 18 22 18q34 0 34 -32q0 -25 -15.5 -38.5t-36.5 -13.5q-36 0 -59 24t-23 63q0 46 28.5 80.5t70.5 36.5
q16 1 15 12q-1 27 12 79q1 5 11 24q8 16 8 20q0 12 -11 12q-3 0 -26 -9.5t-27 -9.5q-46 0 -76 33.5t-30 80.5q0 34 25 71q29 44 71 44q38 0 56.5 -15.5t20.5 -15.5q14 0 16 22q4 39 8 49q23 65 108 65q50 0 91 -40t41 -85q0 -30 -18 -54q-11 -15 -33 -33q-18 -14 -18 -18
q0 -2 17 -14q20 -15 30 -30q17 -23 17 -50q0 -41 -34.5 -71.5t-75.5 -30.5q-39 0 -67 27q-16 15 -37 49q-16 27 -24 27q-13 0 -28 -45.5t-15 -72.5q0 -13 14 -17.5t29 -8.5q60 -19 101 -80q11 -17 28 -73q3 -10 21 -10q28 0 53.5 14t28.5 14q14 0 14 -9v-30zM304 60
q0 32 -43 80q-46 52 -92 52q-10 0 -10 -12q0 -37 48.5 -87.5t80.5 -50.5q16 0 16 18z" />
    <glyph glyph-name="sterling" unicode="&#xa3;" horiz-adv-x="506" 
d="M476 114q-12 -33 -36 -89q-17 -33 -40 -33q-36 0 -140 4t-147 4q-27 0 -95 -9q23 12 45 25q29 17 44 42q19 33 19 88q0 15 -1 31l-14 158h-85v29h83l-8 115q-7 109 49 179q52 66 133 66q42 0 74 -10l55 -22q7 -3 23 -8q-3 -18 -7 -51q-2 -18 -3 -87q-7 42 -21 95
q-12 21 -50 40t-74 19q-48 0 -72 -47q-19 -39 -15 -90l16 -199h116v-29h-113l6 -89q11 -153 -86 -211q68 -6 125 -6q131 0 160 19z" />
    <glyph glyph-name="section" unicode="&#xa7;" horiz-adv-x="504" 
d="M504 124q0 -45 -64 -87q-57 -36 -97 -36q-74 0 -113 43q-34 38 -48 118q-1 5 -18 5q-30 0 -72 -14q-58 -19 -58 -52q0 -20 16 -20q2 0 16 4.5t17 4.5q39 0 39 -40q0 -23 -16 -36.5t-39 -13.5q-33 0 -52 27q-15 22 -15 49q0 51 58 82q45 24 112 30q9 1 9 17q0 23 -6 25
q-120 36 -120 130q0 74 62 94q19 6 29 64q13 72 23 90q5 8 26 26q20 15 20 20q0 6 -1 10t-1 7q0 14 12 14q11 0 11 -13q0 -4 -2 -9t-2 -9q0 -6 13 -19q18 -18 20 -21q13 -19 16 -55q0 -30 1 -60q1 -47 18 -56q53 -27 53 -81q0 -56 -38 -93t-104 -40q-14 -1 -14 -21
q0 -15 2.5 -17t18.5 -2q60 0 108 -30q53 -34 61 -88q1 -9 8 -9q13 0 43 44.5t49 44.5t19 -27zM303 386q0 23 -17 23q-7 0 -25.5 -22.5t-49.5 -22.5q-29 0 -47 15q-8 7 -22 27q-10 15 -18 15q-20 0 -20 -28q0 -39 37 -66q33 -24 68 -24q30 0 62 27.5t32 55.5zM368 50
q0 58 -47 91q-42 30 -101 30q-21 0 -21 -7q3 -53 33 -94q34 -45 83 -45q53 0 53 25z" />
    <glyph glyph-name="bullet" unicode="&#x2022;" horiz-adv-x="233" 
d="M186 321h-132v132h132v-132z" />
    <glyph glyph-name="paragraph" unicode="&#xb6;" horiz-adv-x="700" 
d="M700 345h-6q-13 -2 -76 -2h-77q-10 0 -10 -8q0 -13 12 -36q12 -26 23 -26q9 0 10 8q0 -2 0 15q0 29 23 29q3 0 8.5 -6t13.5 -8h20q14 0 14 -8q0 1 -11 -16t-11 -31q0 -11 14.5 -42t14.5 -32q0 -4 -3 -4t-28 12t-38 12q-16 0 -34 -12t-22 -12q-1 0 -2.5 11.5t-12.5 27.5
q-2 4 -7.5 8t-5.5 6q0 -4 9 15q1 6 5 17l22 -5q10 0 10 7q-11 16 -34 62l-37 -46q-27 -35 -27 -47q0 -1 4 -7t4 -11q0 -18 -22 -18q-15 0 -15 12t9 21q6 4 11 8q13 18 12 30q-2 0 -26 -14q-1 -1 -18 -6q-12 -3 -15 -11.5t-5 -15.5t-15 -7q-11 0 -11 10q0 7 17 18q4 5 13 12
l21 6q16 4 16 10q0 4 -7 9t-12 5q-3 0 -9.5 -3t-9.5 -3q-15 0 -15 11q0 1 1.5 6t1.5 13.5t21 8.5q12 0 16 -10l2 -14q5 -13 23 -13q16 0 32 12q6 4 21 23t15 23q0 6 -64 6q-12 0 -35.5 -2t-35.5 -2q-3 0 -11 -4t-9 -4q-4 0 -10.5 5.5t-15.5 5.5q-4 0 -7 -3q-5 -9 -18 -27
q-29 -32 -29 -33v-6q0 -4 -4.5 -13.5t-4.5 -14.5q0 -2 3 -2q2 0 9 9.5t10 9.5q1 0 7 -10q12 -15 12 -12q0 -2 -8 -10t-8 -15q0 -11 3 -20q0 -1 3.5 -5t3.5 -8q-1 -3 -3 -3q-8 0 -54 36q-1 1 -10 0.5t-9 2.5q0 2 4.5 8.5t4.5 7.5q0 3 -2 8.5t-2 8.5q0 5 2 5q7 0 12.5 -7
t7.5 -7q4 0 10 14.5t6 19.5q0 4 -3 6q-9 1 -31 1q-35 0 -46 16h-5q-9 0 -32.5 -15.5t-23.5 -23.5q0 -7 10 -7q2 0 14.5 6t14.5 6q8 0 16.5 -10t8.5 -18q0 -3 -12 -15.5t-12 -28.5q0 -1 1 -4v-4q0 -11 -7 -11q-3 0 -26 12.5t-38 12.5q-14 0 -44 -11.5t-33 -11.5q-4 0 -4 3
t21 40.5t21 46.5t-6.5 24t-6.5 17t21 9l25 9q9 0 20.5 -6t11.5 -14q0 -2 -5.5 -13.5t-5.5 -13.5q0 -9 7 -9l27 21q7 5 21 11q10 5 10 7q0 4 -8 19.5t-12 15.5h-134q-2 0 -11 -4.5t-11 -4.5q-8 0 -8 12q0 15 12 15q1 0 11 -5t14 -5q9 -1 110 -1q12 0 12 8l-7 11
q-32 49 -58 49q-1 0 -3.5 1.5t-3.5 1.5q-3 0 -8.5 -6t-5.5 -8q0 -3 2.5 -8.5t2.5 -8.5q0 -18 -25 -18q-18 0 -18 22q0 11 9 16t20 3q6 6 12 15l-32 28h-9q-12 0 -12 14q0 16 15 16q14 0 15 -16q1 -19 14 -26q8 -6 28 -14q1 1 1 4q0 -1 -3 10q-1 6 -5 18q-1 2 -7 8.5t-6 11.5
q0 24 24 24q19 0 19 -18q0 -12 -11 -18.5t-11 -14.5q0 -10 15 -28q15 -13 49 -53q2 -6 10 -12q2 14 11 42q4 8 13 16.5t9 9.5q0 9 -12 9q-4 0 -13.5 -4t-15.5 -4q0 7 -2 22q-1 2 -4.5 8t-3.5 8q0 3 10.5 10.5t12.5 12.5t3 17t3 12q6 0 30 -12.5t32 -12.5q1 0 31 11t35 11
q6 0 6 -4t-8.5 -15.5t-10.5 -17.5q-10 -32 -10 -40q0 -15 11 -29t11 -22q0 -2 -18 -4q-12 -1 -30 -10t-20 -9q-15 0 -18 13v25q0 15 -12 15q-13 0 -22 -19q-12 -24 -12 -44q0 -7 6 -7t33.5 -1t30.5 -1q4 0 12.5 2t12.5 2q5 0 14.5 -1.5t14.5 -1.5q41 0 51 2q2 0 7.5 3t7.5 3
t12 -4t16 -4q8 0 28.5 1.5t28.5 1.5q12 0 35 -1.5t33 -1.5q5 0 14.5 16.5t13.5 20.5q-12 5 -34 15q-2 1 -11.5 9t-14.5 8q-11 0 -11 -9q0 -4 3 -11.5t3 -11.5q0 -6 -11.5 -14.5t-16.5 -8.5t-50 16q13 52 13 42q0 18 -12 36l-14 22q-2 6 -11 21t-9 17q0 5 6 5
q-1 0 31.5 -12.5t51.5 -12.5q17 0 40 12.5l23 12.5q4 0 5 -3q1 -2 0 -7t-1 -6q0 -18 13 -30t13 -15q0 1 -6 -12q-2 -6 -4.5 -12t-11.5 -6q-5 0 -14.5 4t-14.5 4q-8 0 -8 -7q0 -10 25.5 -23.5t36.5 -13.5q1 0 7.5 7t14 8.5t24.5 5.5q6 2 11 16.5t5 22.5q-5 -1 -9 -5t-6 -4
q-5 0 -5 17l-7 17q4 4 17.5 5.5t17.5 5.5q22 20 31 20q3 0 3 -2l-3.5 -7t-3.5 -12q0 -6 8 -16t8 -12l-8 -5t-11 -13q-19 12 -23 11q-3 -13 -13 -40q33 -8 47 -30q5 -10 14 -30q1 -3 13 -3.5t12 -1.5v-7zM595 407h-11q-3 0 -14 -10q12 0 16 4q1 1 9 6zM664 357q0 15 -12 30
q-16 21 -42 21q-3 0 -15.5 -10.5t-22.5 -10.5h-11q-5 0 -13 -11t-8 -19q0 -5 51 -5h51q22 0 22 5zM313 339q-3 4 -38 4q-11 0 -19 -3.5t-10 -3.5t-6 3t-6 3.5t-25 0.5q-27 0 -28 -1q0 -1 1 -5t13 -25q38 6 37 6h14q16 0 25.5 -8l9.5 -8q4 0 20 16t12 21zM270 297
q0 11 -21 11q-42 0 -42 -5q0 -8 16 -9q24 -2 40 -2q7 0 7 5z" />
    <glyph glyph-name="germandbls" unicode="&#xdf;" horiz-adv-x="876" 
d="M836 187q0 -78 -54 -137.5t-132 -59.5q-47 0 -84.5 12t-47.5 12q-8 0 -19 -6q-20 20 -24 141q34 -78 61 -100q35 -30 115 -30q44 0 84 36t40 74q0 63 -74 129l-137 114q-74 72 -74 150q0 77 46.5 132.5t121.5 55.5q52 0 87 -14q51 -21 68 -25q-7 -42 -7 -57t-3 -83
q-7 41 -24 100q-10 19 -47 36.5t-76 17.5q-49 0 -78.5 -33t-29.5 -75q0 -46 75 -109q132 -113 138 -120q75 -78 75 -161zM398 187q0 -78 -54 -137.5t-132 -59.5q-47 0 -84.5 12t-47.5 12q-8 0 -19 -6q-20 20 -24 141q34 -78 61 -100q35 -30 115 -30q44 0 84 36t40 74
q0 63 -74 129l-137 114q-74 72 -74 150q0 77 46.5 132.5t121.5 55.5q52 0 87 -14q51 -21 68 -25q-7 -42 -7 -57t-3 -83q-7 41 -24 100q-10 19 -47 36.5t-76 17.5q-49 0 -78.5 -33t-29.5 -75q0 -46 75 -109q132 -113 138 -120q75 -78 75 -161z" />
    <glyph glyph-name="registered" unicode="&#xae;" horiz-adv-x="756" 
d="M756 160q0 -9 -5 -9l-19.5 16t-44.5 16q-23 0 -23 -11q0 -6 4 -17.5t4 -17.5q0 -5 -10 -5q-11 0 -31 6t-29 6q-18 0 -18 -11q0 -3 2.5 -10t2.5 -10q0 -12 -10 -12q-36 0 -78 33q-45 36 -45 71q0 19 -7 19q-12 0 -30 -25q-16 -21 -21 -36q-2 -4 -2 -9q0 -36 26 -69
q16 -21 48 -45q26 -20 26 -25q0 -15 -16 -15t-57 42q-31 31 -49 85l-27 96q-24 77 -54 77q-10 0 -12 -8t-3 -15q-33 -75 -89 -75q-14 0 -17 17t-15 17q-9 0 -32 -14.5t-36 -14.5q-4 0 -3 9q2 17 2 15q0 18 -13 18q-26 0 -47.5 -34.5t-20.5 -34.5q-7 0 -7 28q0 37 13 66
q9 20 24 37q13 14 13 16q0 3 -11 10.5t-11 11.5q0 13 31.5 30t45.5 17q3 0 7 -1t7 -1q14 0 14 13q0 4 -2.5 10.5t-2.5 10.5q0 12 14 12q33 0 68.5 -18.5t56.5 -46.5q4 -5 17 -48q7 -5 23 -15q5 -4 17.5 -13t10.5 -9q2 0 5 17q10 58 38 124q6 14 6 22l-18 25t-18 54
q0 20 18.5 62t29.5 42q4 0 12.5 -14t11.5 -14q4 0 28 34.5t39 34.5q11 0 20 -20.5t16 -20.5q9 0 32.5 5.5t32.5 5.5q10 0 37.5 -5.5t27.5 -10.5t-15 -8q-19 -3 -24 -7q-37 -26 -37 -40q0 -13 19.5 -19t19.5 -11q0 -13 -28 -33t-28 -29t15.5 -13.5t15.5 -9.5
q0 -18 -40.5 -38.5t-66.5 -20.5q-33 0 -53.5 18t-22.5 18q-29 0 -52 -122q-5 -26 0 -52q1 -5 21 -79q4 -13 7 -13t9 11q20 41 50 62q9 5 18 13q0 2 -1 6.5t-1 6.5q0 35 40 60q36 23 75 23q37 0 37 -17q0 -2 -2 -6t-2 -6q0 -9 16 -9q5 0 15.5 2t15.5 2q15 0 36 -7
q25 -9 25 -21q0 -3 -6.5 -13t-6.5 -14q0 -6 27 -36.5t27 -68.5z" />
    <glyph glyph-name="copyright" unicode="&#xa9;" horiz-adv-x="565" 
d="M384 700q3 0 3 -2q0 -5 -12.5 -22t-13.5 -21q-8 -21 -8 -43q0 -54 5.5 -94t5.5 -49q0 -31 -3 -40t-19 -19q-3 -2 -10 -10q-4 -4 -13 -4q-40 0 -40 66q0 43 13 92t13 45q0 6 -3 6q-12 0 -29.5 -56t-18.5 -89q0 -15 -1.5 -30.5t-15.5 -15.5q-29 0 -29 63q0 37 26.5 88
t65.5 86q55 49 84 49zM565 420q0 -10 -6.5 -42t-10.5 -43q-20 -52 -61 -95q-50 -52 -100 -52q-16 0 -30 7q-17 9 -17 24q0 26 32 33l50 8q13 5 39 22q35 22 35 33q0 2 -3 5q-2 0 -47.5 -22.5t-78.5 -22.5q-42 0 -42 24q0 17 24.5 37.5t58.5 20.5q41 0 52 2q34 6 66 30
q12 9 21 29l9 20q9 0 9 -18zM349 0q-3 0 -14 6l-31 73q-34 90 -44 167q-5 38 -5 85q0 24 11 82l11 -9l-8 -24q-4 -18 -4 -54q0 -83 14 -141q3 -14 6 0q4 23 17 48q16 29 30 29q5 0 5 -6q0 -2 -10.5 -10.5t-13.5 -12.5q-20 -31 -20 -57q0 -37 20 -91q3 -8 36 -85zM260 177
v-13q-41 72 -75 81v10q15 0 40 -27t35 -51zM173 227q0 -21 -18.5 -34t-40.5 -13q-2 0 -17 1.5t-17 1.5q-39 0 -80 -35l1 13q2 22 33 79q34 62 60 79q12 8 41 8q12 0 24 -10.5t12 -21.5q0 -16 -15 -16l-16 3.5t-31 3.5q-14 0 -41 -21.5t-27 -34.5q0 -5 4 -5q1 0 24 18t48 18
q16 0 33 -8q23 -10 23 -26z" />
    <glyph glyph-name="trademark" unicode="&#x2122;" horiz-adv-x="440" 
d="M440 621q0 -31 -31 -63q-12 -12 -57 -46q-31 -24 -31 -36l13 -5q57 -21 57 -63q0 -20 -13.5 -35t-33.5 -15q-17 0 -34.5 19.5t-17.5 42.5q0 17 3.5 29.5l3.5 12.5q0 1 -20 1q-9 0 -29 -8q-33 -13 -56 -34q-5 -5 -6 -13q-4 -45 -44 -134q-11 -25 -17 -41q-7 -19 -3 -19
q1 2 6 7q8 10 37 31q7 4 29 9q18 4 18 7q0 8 -10 17.5t-10 17.5q0 3 7 2q61 0 130 -44q60 -37 60 -51q0 -1 -18 7q-30 13 -74 13q-37 0 -73 -18q-7 -4 -14.5 -10t-8.5 -6q-5 0 -5 5q0 12 9 27t9 17q0 7 -9 7q-34 0 -65.5 -36.5t-31.5 -70.5q0 -32 21 -73.5t47 -58.5
q-7 -8 -15 -13q-33 30 -53 80q-19 47 -19 94q0 41 -7 59q-11 31 -46 31q-27 0 -27 -22q0 -7 12 -8q9 -1 9 -14q0 -10 -11 -10q-8 0 -14.5 9t-6.5 18q0 15 11 26t26 11q9 0 26 -10t26 -10q1 0 4 13q20 83 57 126q7 9 19 23q8 9 8 12q0 13 -4 35t-8 22l-20 -19
q-26 -25 -38 -25q-3 0 -5 6q0 3 6.5 21t7.5 21q9 37 9 166q0 13 -1 20q24 -12 61 -78q39 -71 39 -115v-5q-31 13 -33 13q-8 0 -8 -6q0 -17 4 -37q2 -11 4 -11q-1 0 11 8q29 19 54 27q20 3 47 8l18 24l66 54q44 37 44 62q0 37 -34 37q-26 0 -26 -26q0 -6 1 -10q-1 1 -6 7
t-5 10q0 12 9.5 20t21.5 8q21 0 34.5 -13t13.5 -31zM380 416q0 16 -24.5 31t-38.5 15q-12 0 -12 -35q0 -18 12 -36t30 -18q33 0 33 43zM174 532l-10 55q-8 34 -21 46q1 -7 -1 -23l11 -52q3 -18 5.5 -35.5t7.5 -17.5q13 0 8 27zM332 244q0 6 -28 12.5t-49 6.5q-33 0 -33 -6
q0 -5 6 -6q5 -1 14 0q13 1 15 1q24 0 46.5 -5.5t20.5 -5.5q8 0 8 3zM174 392q1 6 0 7t-5 -3q-26 -26 -48 -80q-21 -50 -21 -76t6 -26q-1 0 19 46l41 96q5 14 8 36z" />
    <glyph glyph-name="acute" unicode="&#xb4;" 
d="M508 849q0 -26 -34 -39l-163 -60l98 116q19 22 52 22q47 0 47 -39z" />
    <glyph glyph-name="dieresis" unicode="&#xa8;" 
d="M511 796q0 -20 -14 -33t-33 -13t-33 13t-14 33q0 19 14 33t33 14t33 -14t14 -33zM354 796q0 -20 -14 -33t-33 -13t-33 13t-14 33q0 19 14 33t33 14t33 -14t14 -33z" />
    <glyph glyph-name="AE" unicode="&#xc6;" horiz-adv-x="823" 
d="M803 82q7 -36 -6 -58t-15 -24q-9 -10 -28 -10q-27 0 -115.5 5t-105.5 5q-38 0 -116 -10q42 21 54 35q14 18 14 59v98h-282l-62 -91q-15 -23 -33 -55q-6 -24 40 -46q-64 10 -91 10t-101 -10q60 27 85 48q17 14 61 73l381 536q-7 34 -71 63q102 -10 121 -10q11 0 78 3t77 3
q17 0 25 -8l15 -23q8 -13 13 -71q-15 33 -27 44t-39 18q-11 3 -90 2v-286h77q65 0 77 67q-5 -58 -5 -84q0 -15 8 -72q-24 52 -80 52h-77v-316h83q55 0 79 6q45 11 56 47zM485 226v360l-250 -360h250z" />
    <glyph glyph-name="Oslash" unicode="&#xd8;" horiz-adv-x="776" 
d="M746 329q0 -148 -114 -253q-104 -96 -230 -96q-124 0 -218 64l-78 -104l-44 33l79 105q-111 105 -111 279q0 159 108 264q103 99 243 99q116 0 201 -56l72 95l45 -30l-74 -99q121 -113 121 -301zM543 612q-71 79 -162 79q-111 0 -180 -95q-66 -91 -66 -230
q0 -115 61 -215zM643 319q0 143 -66 248l-348 -463q80 -94 183 -94q84 0 154 84q77 92 77 225z" />
    <glyph glyph-name="plusminus" unicode="&#xb1;" horiz-adv-x="786" 
d="M751 343l-161 -142l-149 148l151 150zM542 546l-149 -149l-149 150l149 160zM344 349l-149 -148l-160 148l158 150zM545 150l-152 -164l-149 164l149 151z" />
    <glyph glyph-name="yen" unicode="&#xa5;" horiz-adv-x="665" 
d="M520 575q-42 -42 -100 -60q-31 -10 -89 -16q-43 -4 -52 -14q-1 -1 -10 -20q-6 -13 -16 -13q-6 0 -6 12q0 8 4 23t4 23q0 2 -1 5q-4 4 -24 7q-13 3 -26.5 5.5t-55.5 23.5q-31 15 -71 15q-59 0 -59 -41q0 -9 6 -20.5t14 -11.5q4 0 10.5 4t10.5 4q17 0 17 -23q0 -19 -22 -19
q-23 0 -38.5 20.5t-15.5 43.5q0 58 70 85l77 22l13 25q9 17 22 17l1 -1q-1 -6 11 -25q18 -19 59 -19q22 0 40.5 14.5t23.5 14.5l2 -1l3 -5q0 -4 -4 -12t-4 -13q0 -25 46 -53q42 -25 70 -25q41 0 78 39zM665 179q0 -14 -21 -21q-29 -9 -32 -11q-11 -38 -21 -77
q-28 -71 -87 -71q-19 0 -34.5 14.5t-15.5 33.5q0 22 19 22q24 0 24 -18q0 -4 -4 -10t-4 -10q0 -13 18 -13q44 0 44 64q0 36 -18 73q-21 42 -25 74q-2 25 -12 59q-1 1 -3 1q-7 0 -24 -7.5t-26 -7.5q-10 0 -10 7q0 9 11 17q8 6 17 12q20 19 31 72q13 63 22 80q16 30 48 62
l12 -12q-46 -45 -46 -96q0 -41 25 -62q16 -14 51.5 -24t42.5 -16l1 -2q0 -4 -17 -20.5t-17 -40.5q0 -34 16.5 -47t34.5 -25zM665 655l-107 -102q-82 -78 -99 -107q-8 -17 -15 -34q-12 -26 -21 -26q-4 0 -17 8l-49 -47q-27 -31 -27 -58q0 -10 14 -12q19 -4 22 -7l1 -2
q0 -5 -6.5 -13.5t-6.5 -12.5q0 -3 11 -7t11 -8q0 -5 -15.5 -18t-15.5 -26q0 -4 1.5 -10.5t1.5 -10.5q0 -13 -11 -13q-5 0 -14 2.5t-14 2.5q-15 0 -28 -12t-17 -12t-8.5 8t-7.5 14q-23 10 -58 33q-18 32 -39 66q-7 3 -13 5q-9 4 -9 9q0 8 16 17.5t16 27.5q0 5 -1.5 13
t-1.5 13q0 12 13 12q5 0 12 -4t11 -4q5 0 18.5 8.5t20.5 8.5q5 0 11.5 -8.5t12.5 -8.5q4 0 9 5t9 5q5 0 8.5 -10.5t9.5 -10.5q12 0 70 56.5t58 62.5q0 3 -3.5 9t-3.5 9q0 7 24.5 14.5t27.5 10.5l184 180zM168 180q-31 -23 -92 -72l-8 -1q-16 0 -16 18q0 14 103 67zM144 212
q-15 -17 -55 -36l-63 -26q-26 11 -26 29v2q53 7 138 35zM189 160q-7 -19 -32 -57t-38 -49q-18 8 -18 23q0 11 81 87zM213 138q-8 -37 -17 -74q-15 -60 -22 -62q-8 1 -17 11t-9 18t25 56.5t33 56.5z" />
    <glyph glyph-name="mu" unicode="&#xb5;" horiz-adv-x="496" 
d="M496 536q0 -8 -14 -20.5t-14 -18.5q0 -3 2 -5.5t2 -4.5q0 -9 -14 -14q-10 -4 -18 -4q-2 0 -16.5 3t-16.5 3q-21 0 -21 -12q0 -2 4.5 -5t4.5 -5q0 -3 -4 -3q-9 0 -20 5.5t-15 5.5t-26 -11q-26 -12 -33 -22q-25 -34 -25 -46q0 -4 3 -4q4 0 18 13q19 17 21.5 18.5t34.5 18.5
q8 4 12 10t6 6q3 0 3.5 -6.5t1.5 -8.5q12 -14 18 -31q1 -2 5 -33q3 -20 12 -20q8 0 13 17q4 13 4 23q0 11 -10 27.5t-10 26.5q0 5 7 5q-1 0 12 -6q50 -23 50 -48q0 -15 -8 -15q-2 0 -5.5 4t-9.5 4t-7 -17q1 -12 1 -23q-2 -8 -7 -8q-1 0 -4 3t-6 3q-6 0 -14 -16t-10 -16
t-5.5 3t-6.5 3q-5 0 -16 -13t-15 -13q-3 0 -3 8q0 5 9 15t9 12q0 8 -8 7t-8 2q0 1 4 11.5t4 23.5q0 36 -12 36q-6 0 -15.5 -37t-13.5 -37q-2 0 -5 4.5t-7 4.5t-12 -14.5t-8 -18.5q0 -7 18.5 -35.5t22.5 -28.5q2 0 5 1t5 1t6 -3t6 -3t8.5 1t8.5 1q14 0 17 -4q-1 -5 2 -16
q3 -5 14 -8t14 -7q2 -2 0 -7q-3 -6 -3 -8q0 -4 7.5 -10.5t8.5 -10.5q0 -2 -5.5 -6t-5.5 -7q0 -4 5 -14t3 -12t-12 3.5t-13 5.5q-2 0 -5.5 -4.5t-5.5 -4.5q-4 0 -10.5 10.5t-11.5 10.5q-4 0 -7.5 -4t-4.5 -4q-6 0 -8.5 16.5t-8.5 16.5q-2 0 -6 -2q-3 -2 -5 0q-4 4 0 17
q4 16 4 15q0 2 -6 6.5t-6 7.5q0 2 3.5 5.5t2.5 5.5q-26 34 -42 61q-4 1 -10 4q-1 1 -1.5 6.5t-4.5 5.5q-7 0 -13.5 -10t-9.5 -10v16q0 3 -7 3q-13 0 -32.5 -24t-19.5 -30q0 -2 5 -2q1 0 6.5 1t8.5 1q30 0 47 -24.5t17 -57.5q0 -4 8 -9l12 -9q18 -17 18 -30q0 -10 -3.5 -11
t-5.5 -5t3 -15.5t5 -15.5q0 -5 -7 -4q-9 1 -10 0q-5 -5 -7 -20t-5 -16q-6 0 -14 -2q-2 -9 -11 -22q-4 1 -14 -1q-1 -1 -6 -6.5t-8 -4.5q0 10 -3 27q0 1 -5 0.5t-5 2.5q0 11 3.5 17.5t3.5 10.5q0 5 -5 5q-2 0 -7 -3q-4 -2 -4 0q0 6 6.5 16.5t6.5 14.5q0 6 -5 7t-5 3
q0 4 9.5 12.5t9.5 13.5q-3 6 -2 16q3 5 23 17q15 8 15 22q0 23 -17 43t-36 20q-16 0 -25 -4q-15 -7 -15 -18q0 3 5 -13t5 -35q0 -18 -15 -31.5t-27 -13.5h-18q-2 2 -6 8h14q18 0 30.5 12.5t12.5 29.5q0 33 -9 33q-1 0 -21 -19q-24 -24 -49 -39l-48 -21l-44 -26q-3 0 -3 5
q0 2 8 17.5t10 16.5q8 1 23 3.5t48 19.5q13 7 39.5 30t26.5 33q0 -3 -13.5 25.5t-13.5 56.5q0 78 74 97q7 2 12 11q9 18 9 25q0 3 -24 15.5t-24 14.5q0 4 4 6t4 4q0 6 -13 16t-13 12q0 3 4.5 4.5t4.5 3.5q0 6 -14 14t-14 14q0 5 7 5q4 0 14 -2.5t14 -2.5q13 0 13 3
q0 2 -3 5.5t-3 8.5t10 5q5 0 9.5 -3t8.5 -3q6 0 6 2t-1 5t-1 4q0 3 6 3t14.5 -7t11.5 -7t4 3.5t3 3.5q5 0 12 -7.5t13 -7.5q8 0 8 11q0 2 -1.5 15.5t-1.5 20.5q0 26 12 26q2 0 2.5 -1t2.5 -1q7 0 11 18t5 18q2 0 5.5 -5t5.5 -5q4 0 15 15t17 15q3 0 3 -8v-12q-1 -10 -1 -16
q0 -2 5 -2q2 0 5.5 3t5.5 3q3 0 4 -6q1 -4 -0.5 -15.5t-1.5 -14.5q0 -4 8 -4.5t8 -5.5q0 -2 -1 -8t-1 -8q0 -8 8 -8q7 0 19 13.5t17 13.5q2 0 4.5 -3t4.5 -3t12.5 9.5t14.5 9.5q6 0 6 -4t-2 -12.5t-2 -10.5q0 -7 11 -7q3 0 3 -8q0 -2 -4 -14.5t-4 -14.5q0 -8 8 -8q3 0 3.5 1
t1.5 1q4 0 4 -12zM451 561q0 9 -7 9q-6 0 -36.5 -34t-30.5 -47q-2 -12 7 -12q15 0 41 32.5t26 51.5zM370 494q0 5 -26 66q-4 13 -8 24.5t-11 11.5q-10 0 -10 -24q0 -21 13 -59q1 -4 8 -10.5t7 -10.5t-4 -4q-3 0 -26.5 7.5t-44.5 7.5q-8 0 -8 -4q0 -6 33.5 -20t44.5 -14
q8 0 20 11.5t12 17.5zM215 324q0 11 -3 11q-15 0 -15 -1q0 9 7 19.5t7 16.5q0 4 -3 7t-3 5q0 3 2 6t2 7t-2 7q-31 0 -50.5 -25.5t-19.5 -58.5q0 -18 8.5 -45t18.5 -27q9 0 30 35t21 43z" />
    <glyph glyph-name="mu" unicode="&#x3bc;" horiz-adv-x="496" 
d="M496 536q0 -8 -14 -20.5t-14 -18.5q0 -3 2 -5.5t2 -4.5q0 -9 -14 -14q-10 -4 -18 -4q-2 0 -16.5 3t-16.5 3q-21 0 -21 -12q0 -2 4.5 -5t4.5 -5q0 -3 -4 -3q-9 0 -20 5.5t-15 5.5t-26 -11q-26 -12 -33 -22q-25 -34 -25 -46q0 -4 3 -4q4 0 18 13q19 17 21.5 18.5t34.5 18.5
q8 4 12 10t6 6q3 0 3.5 -6.5t1.5 -8.5q12 -14 18 -31q1 -2 5 -33q3 -20 12 -20q8 0 13 17q4 13 4 23q0 11 -10 27.5t-10 26.5q0 5 7 5q-1 0 12 -6q50 -23 50 -48q0 -15 -8 -15q-2 0 -5.5 4t-9.5 4t-7 -17q1 -12 1 -23q-2 -8 -7 -8q-1 0 -4 3t-6 3q-6 0 -14 -16t-10 -16
t-5.5 3t-6.5 3q-5 0 -16 -13t-15 -13q-3 0 -3 8q0 5 9 15t9 12q0 8 -8 7t-8 2q0 1 4 11.5t4 23.5q0 36 -12 36q-6 0 -15.5 -37t-13.5 -37q-2 0 -5 4.5t-7 4.5t-12 -14.5t-8 -18.5q0 -7 18.5 -35.5t22.5 -28.5q2 0 5 1t5 1t6 -3t6 -3t8.5 1t8.5 1q14 0 17 -4q-1 -5 2 -16
q3 -5 14 -8t14 -7q2 -2 0 -7q-3 -6 -3 -8q0 -4 7.5 -10.5t8.5 -10.5q0 -2 -5.5 -6t-5.5 -7q0 -4 5 -14t3 -12t-12 3.5t-13 5.5q-2 0 -5.5 -4.5t-5.5 -4.5q-4 0 -10.5 10.5t-11.5 10.5q-4 0 -7.5 -4t-4.5 -4q-6 0 -8.5 16.5t-8.5 16.5q-2 0 -6 -2q-3 -2 -5 0q-4 4 0 17
q4 16 4 15q0 2 -6 6.5t-6 7.5q0 2 3.5 5.5t2.5 5.5q-26 34 -42 61q-4 1 -10 4q-1 1 -1.5 6.5t-4.5 5.5q-7 0 -13.5 -10t-9.5 -10v16q0 3 -7 3q-13 0 -32.5 -24t-19.5 -30q0 -2 5 -2q1 0 6.5 1t8.5 1q30 0 47 -24.5t17 -57.5q0 -4 8 -9l12 -9q18 -17 18 -30q0 -10 -3.5 -11
t-5.5 -5t3 -15.5t5 -15.5q0 -5 -7 -4q-9 1 -10 0q-5 -5 -7 -20t-5 -16q-6 0 -14 -2q-2 -9 -11 -22q-4 1 -14 -1q-1 -1 -6 -6.5t-8 -4.5q0 10 -3 27q0 1 -5 0.5t-5 2.5q0 11 3.5 17.5t3.5 10.5q0 5 -5 5q-2 0 -7 -3q-4 -2 -4 0q0 6 6.5 16.5t6.5 14.5q0 6 -5 7t-5 3
q0 4 9.5 12.5t9.5 13.5q-3 6 -2 16q3 5 23 17q15 8 15 22q0 23 -17 43t-36 20q-16 0 -25 -4q-15 -7 -15 -18q0 3 5 -13t5 -35q0 -18 -15 -31.5t-27 -13.5h-18q-2 2 -6 8h14q18 0 30.5 12.5t12.5 29.5q0 33 -9 33q-1 0 -21 -19q-24 -24 -49 -39l-48 -21l-44 -26q-3 0 -3 5
q0 2 8 17.5t10 16.5q8 1 23 3.5t48 19.5q13 7 39.5 30t26.5 33q0 -3 -13.5 25.5t-13.5 56.5q0 78 74 97q7 2 12 11q9 18 9 25q0 3 -24 15.5t-24 14.5q0 4 4 6t4 4q0 6 -13 16t-13 12q0 3 4.5 4.5t4.5 3.5q0 6 -14 14t-14 14q0 5 7 5q4 0 14 -2.5t14 -2.5q13 0 13 3
q0 2 -3 5.5t-3 8.5t10 5q5 0 9.5 -3t8.5 -3q6 0 6 2t-1 5t-1 4q0 3 6 3t14.5 -7t11.5 -7t4 3.5t3 3.5q5 0 12 -7.5t13 -7.5q8 0 8 11q0 2 -1.5 15.5t-1.5 20.5q0 26 12 26q2 0 2.5 -1t2.5 -1q7 0 11 18t5 18q2 0 5.5 -5t5.5 -5q4 0 15 15t17 15q3 0 3 -8v-12q-1 -10 -1 -16
q0 -2 5 -2q2 0 5.5 3t5.5 3q3 0 4 -6q1 -4 -0.5 -15.5t-1.5 -14.5q0 -4 8 -4.5t8 -5.5q0 -2 -1 -8t-1 -8q0 -8 8 -8q7 0 19 13.5t17 13.5q2 0 4.5 -3t4.5 -3t12.5 9.5t14.5 9.5q6 0 6 -4t-2 -12.5t-2 -10.5q0 -7 11 -7q3 0 3 -8q0 -2 -4 -14.5t-4 -14.5q0 -8 8 -8q3 0 3.5 1
t1.5 1q4 0 4 -12zM451 561q0 9 -7 9q-6 0 -36.5 -34t-30.5 -47q-2 -12 7 -12q15 0 41 32.5t26 51.5zM370 494q0 5 -26 66q-4 13 -8 24.5t-11 11.5q-10 0 -10 -24q0 -21 13 -59q1 -4 8 -10.5t7 -10.5t-4 -4q-3 0 -26.5 7.5t-44.5 7.5q-8 0 -8 -4q0 -6 33.5 -20t44.5 -14
q8 0 20 11.5t12 17.5zM215 324q0 11 -3 11q-15 0 -15 -1q0 9 7 19.5t7 16.5q0 4 -3 7t-3 5q0 3 2 6t2 7t-2 7q-31 0 -50.5 -25.5t-19.5 -58.5q0 -18 8.5 -45t18.5 -27q9 0 30 35t21 43z" />
    <glyph glyph-name="ordfeminine" unicode="&#xaa;" horiz-adv-x="685" 
d="M685 223q0 -12 -14 -12q-3 0 -7 1t-10 1q-5 0 -20 -20q-18 -21 -26 -26q-18 -10 -90 -23q-58 -10 -64 -29q-20 -62 -94 -62q-94 0 -130 120q-2 6 -25 6q-16 0 -17 -9q-6 -67 -30 -112q-31 -58 -82 -58q-27 0 -49 15q-27 19 -27 52q0 23 13.5 39t36.5 16q40 0 40 -39
q0 -3 -4.5 -17t-4.5 -16q0 -16 20 -16q33 0 52 58q14 42 14 72q0 17 -5 18q-80 14 -118 48q-43 39 -43 113q0 40 36 97q42 64 87 64q27 0 27 -19t-44.5 -49t-44.5 -43q0 -7 9 -8q54 -8 88 -61q30 -48 30 -108q0 -16 2 -18.5t17 -2.5q20 0 21 14q3 66 40 104t93 38
q54 0 81 -53q8 -15 43 -18h53q53 -1 75 -17q3 -2 21 -20q13 -13 19 -13q4 0 9 2t9 2q13 0 13 -11zM421 124q0 8 -15 18q-20 14 -27 22q-15 18 -15 47q0 31 22.5 49.5t22.5 25.5q0 17 -23 17q-28 0 -55.5 -32t-27.5 -62q0 -35 24 -68q27 -37 66 -37q28 0 28 20zM171 220
q0 59 -30 101q-33 47 -91 47q-25 0 -25 -53q0 -49 45 -83q41 -30 94 -33q7 0 7 21z" />
    <glyph glyph-name="ordmasculine" unicode="&#xba;" horiz-adv-x="685" 
d="M685 67q0 -33 -27 -52q-22 -15 -50 -15q-51 0 -81 58q-24 45 -30 112q-1 9 -18 9q-23 0 -25 -6q-36 -120 -129 -120q-75 0 -95 62q-6 19 -63 29q-72 13 -90 23q-8 5 -25 25.5t-22 20.5q-6 0 -10 -1t-7 -1q-13 0 -13 12q0 11 13 11q4 0 8.5 -2t8.5 -2q6 0 20 13
q18 18 21 20q19 13 55 16q30 0 59 1q47 1 56 18q27 53 82 53q56 0 93 -38t40 -104q1 -14 21 -14q15 0 17 2.5t2 18.5q0 60 30 108q34 53 88 61q9 1 9 8q0 13 -45 43t-45 49t28 19q45 0 87 -64q36 -57 36 -97q0 -74 -43 -113q-38 -34 -118 -48q-6 -1 -6 -18q0 -30 14 -72
q20 -58 53 -58q19 0 19 16q0 2 -4 16t-4 17q0 39 40 39q23 0 36.5 -16t13.5 -39zM659 315q0 53 -25 53q-58 0 -91 -47q-30 -42 -30 -101q0 -21 7 -21q53 3 94 33q45 34 45 83zM381 209q0 30 -27.5 62t-55.5 32q-23 0 -23 -17q0 -7 23 -25.5t23 -49.5q0 -29 -15 -47
q-7 -8 -28 -22q-15 -10 -15 -18q0 -20 28 -20q39 0 66 37q24 33 24 68z" />
    <glyph glyph-name="ae" unicode="&#xe6;" horiz-adv-x="823" 
d="M803 82q7 -36 -6 -58t-15 -24q-9 -10 -28 -10q-27 0 -115.5 5t-105.5 5q-38 0 -116 -10q42 21 54 35q14 18 14 59v98h-282l-62 -91q-15 -23 -33 -55q-6 -24 40 -46q-64 10 -91 10t-101 -10q60 27 85 48q17 14 61 73l381 536q-7 34 -71 63q102 -10 121 -10q11 0 78 3t77 3
q17 0 25 -8l15 -23q8 -13 13 -71q-15 33 -27 44t-39 18q-11 3 -90 2v-286h77q65 0 77 67q-5 -58 -5 -84q0 -15 8 -72q-24 52 -80 52h-77v-316h83q55 0 79 6q45 11 56 47zM485 226v360l-250 -360h250z" />
    <glyph glyph-name="oslash" unicode="&#xf8;" horiz-adv-x="776" 
d="M746 329q0 -148 -114 -253q-104 -96 -230 -96q-124 0 -218 64l-78 -104l-44 33l79 105q-111 105 -111 279q0 159 108 264q103 99 243 99q116 0 201 -56l72 95l45 -30l-74 -99q121 -113 121 -301zM543 612q-71 79 -162 79q-111 0 -180 -95q-66 -91 -66 -230
q0 -115 61 -215zM643 319q0 143 -66 248l-348 -463q80 -94 183 -94q84 0 154 84q77 92 77 225z" />
    <glyph glyph-name="questiondown" unicode="&#xbf;" horiz-adv-x="432" 
d="M299 668q0 -21 -15.5 -36.5t-37.5 -15.5q-21 0 -37 15.5t-16 36.5q0 22 16 37t37 15q22 0 37.5 -15t15.5 -37zM392 19q-28 -4 -52 -11q-59 -18 -110 -18q-89 0 -141 46q-49 43 -49 115q0 80 63 130q20 15 117 64q63 31 63 66q0 74 -83 123l6 5q132 -58 132 -138
q0 -56 -58 -107l-108 -79q-58 -45 -58 -86q0 -54 35 -83q31 -27 83 -27q45 0 77.5 16t38.5 44.5l20 99.5q8 -39 18 -105z" />
    <glyph glyph-name="exclamdown" unicode="&#xa1;" horiz-adv-x="289" 
d="M196 658q0 -21 -15.5 -36.5t-37.5 -15.5q-21 0 -37 15.5t-16 36.5q0 22 16 37t37 15q22 0 37.5 -15t15.5 -37zM229 -10l-88 10l-81 -10q10 8 17 18q18 22 20 45l43 488h6l47 -488q3 -35 36 -63z" />
    <glyph glyph-name="logicalnot" unicode="&#xac;" horiz-adv-x="652" 
d="M622 527q0 -61 -40 -140q-33 -64 -81 -120q-69 -80 -102 -131q-46 -70 -72 -149q-34 119 -162 285q-62 81 -87 123q-45 76 -45 131q0 58 40 98.5t98 40.5q59 0 102 -40q39 -36 54 -95q13 56 55 95.5t98 39.5q60 0 101 -39.5t41 -98.5z" />
    <glyph glyph-name="florin" unicode="&#x192;" horiz-adv-x="698" 
d="M698 329q0 -29 -27.5 -54.5t-59.5 -25.5q-1 0 -15 1.5t-22 1.5q-14 0 -36 -10q-2 15 1 21q6 13 32 26t26 21q0 31 -58 31q-56 0 -93 -49q-22 -30 -31 -66l-24 -6q-10 4 -10 10q23 78 82 136q63 62 130 62q105 0 105 -99zM411 513q0 -48 -26 -140.5t-26 -142.5q0 -2 1 -10
h-26q-2 28 -36 122q-32 89 -32 154q0 51 35 121l42 83q68 -84 68 -187zM447 182q0 -26 -18 -26h-184v46h196q6 -13 6 -20zM448 79q-18 -19 -30 -19q-13 0 -27 29q-11 24 -11 31q0 3 8 17h12l21 -32zM311 224q-13 -3 -23 -4q-34 66 -42 76q-37 47 -91 47q-38 0 -38 -34
q0 -19 18 -27q23 -9 31 -27v-12q-25 5 -30 5q-10 0 -23.5 -3t-15.5 -3q-38 0 -67.5 30t-29.5 61q0 44 43 74q37 26 77 26q72 0 128.5 -62.5t62.5 -146.5zM395 0q-34 5 -47 5q-8 0 -24.5 -2.5t-26.5 -2.5q19 40 27 77q3 21 10 61h21q2 -17 12 -65q10 -40 28 -73zM312 124
q0 -22 -15.5 -39.5t-32.5 -17.5q-6 0 -24 6v10q24 4 51 54h17q4 -4 4 -13z" />
    <glyph glyph-name="guillemotleft" unicode="&#xab;" horiz-adv-x="388" 
d="M348 162h-12l-145 190l147 188h9l-85 -187zM198 162h-13l-145 190l147 188h9l-84 -187z" />
    <glyph glyph-name="guillemotright" unicode="&#xbb;" horiz-adv-x="388" 
d="M348 352l-145 -190h-13l86 191l-84 187h9zM197 352l-145 -190h-12l86 191l-85 187h9z" />
    <glyph glyph-name="ellipsis" unicode="&#x2026;" horiz-adv-x="600" 
d="M553 42q0 -22 -16 -37t-37 -15q-22 0 -37.5 15t-15.5 37q0 21 15.5 36.5t37.5 15.5q21 0 37 -15.5t16 -36.5zM353 42q0 -22 -16 -37t-37 -15q-22 0 -37.5 15t-15.5 37q0 21 15.5 36.5t37.5 15.5q21 0 37 -15.5t16 -36.5zM153 42q0 -22 -16 -37t-37 -15q-22 0 -37.5 15
t-15.5 37q0 21 15.5 36.5t37.5 15.5q21 0 37 -15.5t16 -36.5z" />
    <glyph glyph-name="nonbreakingspace" unicode="&#xa0;" horiz-adv-x="250" 
 />
    <glyph glyph-name="Agrave" unicode="&#xc0;" horiz-adv-x="792" 
d="M802 -10q-100 10 -124 10q-25 0 -122 -10q40 30 40 44q0 24 -16 61l-38 87h-356l-38 -91q-18 -47 -18 -55q0 -24 52 -46q-66 10 -93 10t-99 -10q55 27 73 48q13 14 41 73l294 620l294 -622q14 -28 39 -68q21 -22 71 -51zM522 226l-150 353l-166 -353h316zM453 750h-4
l-159 60q-34 13 -34 39q0 39 47 39q33 0 52 -22z" />
    <glyph glyph-name="Atilde" unicode="&#xc3;" horiz-adv-x="792" 
d="M802 -10q-100 10 -124 10q-25 0 -122 -10q40 30 40 44q0 24 -16 61l-38 87h-356l-38 -91q-18 -47 -18 -55q0 -24 52 -46q-66 10 -93 10t-99 -10q55 27 73 48q13 14 41 73l294 620l294 -622q14 -28 39 -68q21 -22 71 -51zM522 226l-150 353l-166 -353h316zM520 822
q0 -21 -15 -45q-18 -29 -43 -29q-18 0 -58 15t-65 15q-28 0 -44.5 -15t-13.5 -15q-3 0 -3 4q0 18 23 46q26 32 55 32q18 0 62 -15t55 -15q24 0 35 15l11 15q1 0 1 -8z" />
    <glyph glyph-name="Otilde" unicode="&#xd5;" horiz-adv-x="776" 
d="M746 329q0 -149 -114 -255q-105 -98 -230 -98q-161 0 -265 104q-107 107 -107 277q0 159 108 266q103 101 243 101q177 0 278 -129q87 -112 87 -266zM643 319q0 188 -78 287q-70 89 -184 89q-111 0 -180 -97q-66 -93 -66 -232q0 -171 82 -269q76 -91 195 -91q84 0 154 86
q77 94 77 227zM512 822q0 -21 -15 -45q-18 -29 -43 -29q-18 0 -58 15t-65 15q-28 0 -44.5 -15t-13.5 -15q-3 0 -3 4q0 18 23 46q26 32 55 32q18 0 62 -15t55 -15q24 0 35 15l11 15q1 0 1 -8z" />
    <glyph glyph-name="OE" unicode="&#x152;" horiz-adv-x="831" 
d="M811 82q7 -36 -6 -58t-15 -24q-9 -10 -28 -10q-27 0 -115.5 5t-105.5 5q-31 0 -74 -10t-65 -10q-161 0 -265 102q-107 105 -107 275q0 159 108 264q102 99 243 99q24 0 71.5 -10t88.5 -10q11 0 78 3t77 3q17 0 25 -8l15 -23q8 -13 13 -71q-15 33 -27 44t-39 18
q-11 3 -90 2v-286h77q65 0 77 67q-5 -58 -5 -84q0 -15 8 -72q-24 52 -80 52h-77v-316h83q55 0 79 6q45 11 56 47zM493 84v547q0 29 -44 46q-34 14 -68 14q-111 0 -180 -95q-66 -91 -66 -230t82 -246q83 -110 195 -110q44 0 62.5 16.5t18.5 57.5z" />
    <glyph glyph-name="oe" unicode="&#x153;" horiz-adv-x="831" 
d="M811 82q7 -36 -6 -58t-15 -24q-9 -10 -28 -10q-27 0 -115.5 5t-105.5 5q-31 0 -74 -10t-65 -10q-161 0 -265 102q-107 105 -107 275q0 159 108 264q102 99 243 99q24 0 71.5 -10t88.5 -10q11 0 78 3t77 3q17 0 25 -8l15 -23q8 -13 13 -71q-15 33 -27 44t-39 18
q-11 3 -90 2v-286h77q65 0 77 67q-5 -58 -5 -84q0 -15 8 -72q-24 52 -80 52h-77v-316h83q55 0 79 6q45 11 56 47zM493 84v547q0 29 -44 46q-34 14 -68 14q-111 0 -180 -95q-66 -91 -66 -230t82 -246q83 -110 195 -110q44 0 62.5 16.5t18.5 57.5z" />
    <glyph glyph-name="endash" unicode="&#x2013;" horiz-adv-x="450" 
d="M450 349h-450v53h450v-53z" />
    <glyph glyph-name="emdash" unicode="&#x2014;" horiz-adv-x="900" 
d="M900 349h-900v53h900v-53z" />
    <glyph glyph-name="quotedblleft" unicode="&#x201c;" horiz-adv-x="330" 
d="M300 720q-59 -45 -59 -107q0 -4 21.5 -19.5t21.5 -41.5q0 -21 -14.5 -37t-36.5 -16q-23 0 -39 15.5t-16 42.5q0 59 40 109q37 45 82 54zM152 720q-59 -45 -59 -107q0 -4 21.5 -19.5t21.5 -41.5q0 -21 -14.5 -37t-36.5 -16q-23 0 -39 15.5t-16 42.5q0 59 40 109
q37 45 82 54z" />
    <glyph glyph-name="quotedblright" unicode="&#x201d;" horiz-adv-x="330" 
d="M300 662q0 -59 -40 -109q-37 -45 -82 -54q59 45 59 107q0 4 -21.5 19.5t-21.5 41.5q0 21 14.5 37t36.5 16q23 0 39 -15.5t16 -42.5zM152 662q0 -59 -40 -109q-37 -45 -82 -54q59 45 59 107q0 4 -21.5 19.5t-21.5 41.5q0 21 14.5 37t36.5 16q23 0 39 -15.5t16 -42.5z" />
    <glyph glyph-name="quoteleft" unicode="&#x2018;" horiz-adv-x="200" 
d="M156 720q-59 -45 -59 -107q0 -4 21.5 -19.5t21.5 -41.5q0 -21 -14.5 -37t-36.5 -16q-23 0 -39 15.5t-16 42.5q0 59 40 109q37 45 82 54z" />
    <glyph glyph-name="quoteright" unicode="&#x2019;" horiz-adv-x="200" 
d="M156 662q0 -59 -40 -109q-37 -45 -82 -54q59 45 59 107q0 4 -21.5 19.5t-21.5 41.5q0 21 14.5 37t36.5 16q23 0 39 -15.5t16 -42.5z" />
    <glyph glyph-name="divide" unicode="&#xf7;" horiz-adv-x="575" 
d="M575 210q0 -21 -17.5 -42.5t-36.5 -21.5q-3 0 -12 2t-13 2q-3 0 -19.5 -9.5t-20.5 -9.5q-42 0 -78.5 17.5t-42.5 80.5q-3 27 -16 55q-16 34 -34 34q-11 0 -17 -10q-22 -35 -22 -55q0 -7 10 -10.5t27 -12.5q40 -33 40 -82q0 -15 -5 -44t-5 -31q0 -25 34 -38.5t34 -27.5
q0 -7 -19 -7q-48 0 -91 75q-41 70 -41 136q0 21 -8 21t-18 -3q-49 -14 -49 -53q0 -31 16 -33q4 -1 11 6.5t13 7.5q14 0 14 -17q0 -21 -23 -21q-20 0 -33 16.5t-13 37.5q0 60 76 74q11 2 15 14q18 49 22 64q0 14 -26 14q-64 -38 -88 -38q-11 0 -35 6q-32 7 -38 16
q-2 16 -10 44q-1 1 -32 25q-24 18 -24 41q0 14 8 45q9 39 20 50t29 17q23 9 28 12l30.5 19.5t37.5 9.5q39 0 68.5 -30t29.5 -69q0 -8 -1.5 -24t-1.5 -22q0 -27 24 -27q9 0 16 11t7 20q0 16 -18 48.5t-18 63.5q0 84 53 84q11 0 37 -6t28 -6q4 0 27.5 4.5t26.5 4.5
q79 0 79 -54q0 -21 -15.5 -31t-15.5 -20q0 -8 11.5 -14t11.5 -12q0 -61 -41 -92q-35 -27 -91 -27q-9 0 -16.5 -11.5t-7.5 -18.5q0 -24 29 -24q14 0 38 16t59 16q31 0 41 -10q6 -8 11 -16q19 -22 19 -30q0 -6 -3 -21t-2 -26q1 -7 19 -22t18 -31zM420 569q-23 0 -54.5 -35.5
t-31.5 -61.5q0 -6 3 -14q16 0 23 17q11 28 17 36q3 4 30 28q22 20 22 25t-9 5zM468 231q0 6 -53 24q-14 5 -19.5 14.5t-13.5 9.5t-8 -10q0 -14 26.5 -34.5t40.5 -20.5q6 0 16.5 5.5t10.5 11.5zM207 418q0 22 -24.5 41t-53.5 19q-43 0 -43 -15q0 -4 28 -10q36 -6 50 -13
q6 -3 16.5 -15.5t14.5 -12.5q12 0 12 6zM309 143q0 27 -15 53q-17 30 -42 30q-7 0 -7 -22t17 -67q18 -49 31 -49q7 0 12 22q4 19 4 33z" />
    <glyph glyph-name="ydieresis" unicode="&#xff;" horiz-adv-x="846" 
d="M856 710q-61 -22 -89 -41q-32 -22 -50 -58l-317 -625q-41 -82 -125 -131q-63 -37 -129 -47q46 20 99 60q67 51 90 98l41 84l-265 588q-10 23 -38 38q-16 8 -83 34q134 -10 161 -10q21 0 111 10q-43 -24 -43 -55q0 -10 216 -489l237 478q0 26 -16 41q-8 7 -41 25
q91 -10 105 -10q21 0 136 10zM561 796q0 -20 -14 -33t-33 -13t-33 13t-14 33q0 19 14 33t33 14t33 -14t14 -33zM404 796q0 -20 -14 -33t-33 -13t-33 13t-14 33q0 19 14 33t33 14t33 -14t14 -33z" />
    <glyph glyph-name="Ydieresis" unicode="&#x178;" horiz-adv-x="846" 
d="M856 710q-61 -22 -89 -41q-32 -22 -50 -58l-317 -625q-41 -82 -125 -131q-63 -37 -129 -47q52 22 107 66q61 49 82 92l41 84l-265 588q-10 23 -38 38q-16 8 -83 34q134 -10 161 -10q21 0 111 10q-43 -24 -43 -55q0 -10 216 -489l237 478q0 26 -16 41q-8 7 -41 25
q91 -10 105 -10q21 0 136 10zM561 796q0 -20 -14 -33t-33 -13t-33 13t-14 33q0 19 14 33t33 14t33 -14t14 -33zM404 796q0 -20 -14 -33t-33 -13t-33 13t-14 33q0 19 14 33t33 14t33 -14t14 -33z" />
    <glyph glyph-name="currency" unicode="&#xa4;" horiz-adv-x="606" 
d="M574 214l-51 -51l-99 99q-52 -38 -120 -38q-69 0 -120 38l-100 -99l-51 51l99 100q-37 52 -37 118t37 118l-99 100l51 52l100 -99q52 38 119 38q68 0 121 -38l99 99l51 -52l-99 -100q37 -52 37 -118q0 -65 -37 -118zM439 432q0 55 -40 95t-95 40t-95 -40t-40 -95
q0 -56 39.5 -95t95.5 -39t95.5 39.5t39.5 94.5z" />
    <glyph glyph-name="guilsinglleft" unicode="&#x2039;" horiz-adv-x="238" 
d="M198 162h-13l-145 190l147 188h9l-84 -187z" />
    <glyph glyph-name="guilsinglright" unicode="&#x203a;" horiz-adv-x="237" 
d="M197 352l-145 -190h-12l86 191l-85 187h9z" />
    <glyph glyph-name="daggerdbl" unicode="&#x2021;" horiz-adv-x="565" 
d="M540 192q-9 -27 -9 -65q0 -41 8 -69l-19 15q-22 15 -36 16l-174 18l13 -191q3 -48 26 -79q-29 6 -67 6q-39 0 -66 -4q6 10 10 21q12 26 15 56l22 191l-173 -18q-20 -2 -62 -31q6 28 6 69q0 38 -4 65q16 -13 50 -27l183 -17l-24 135l24 144l-173 -18q-21 -2 -60 -31
q3 28 3 69q0 39 -3 65q17 -12 50 -26l180 -18l-19 193q-3 28 -25 68q27 -4 66 -4t67 5q-7 -11 -12 -22q-13 -26 -14 -47l-11 -193l183 18q15 2 45 27q-9 -27 -9 -65q0 -41 8 -70l-19 15q-22 15 -36 16l-175 18l16 -144l-15 -135l185 17q15 1 45 27z" />
    <glyph glyph-name="periodcentered" unicode="&#xb7;" horiz-adv-x="200" 
d="M153 382q0 -22 -15.5 -37t-36.5 -15q-22 0 -37.5 15t-15.5 37q0 21 15.5 36.5t37.5 15.5q21 0 36.5 -15.5t15.5 -36.5z" />
    <glyph glyph-name="periodcentered" unicode="&#x2219;" horiz-adv-x="200" 
d="M153 382q0 -22 -15.5 -37t-36.5 -15q-22 0 -37.5 15t-15.5 37q0 21 15.5 36.5t37.5 15.5q21 0 36.5 -15.5t15.5 -36.5z" />
    <glyph glyph-name="quotesinglbase" unicode="&#x201a;" horiz-adv-x="199" 
d="M153 36q0 -59 -40 -109q-37 -45 -82 -54q59 45 59 107q0 4 -21.5 19.5t-21.5 41.5q0 21 14.5 37t36.5 16q23 0 39 -15.5t16 -42.5z" />
    <glyph glyph-name="quotedblbase" unicode="&#x201e;" horiz-adv-x="347" 
d="M301 35q0 -59 -40 -109q-37 -45 -82 -54q59 45 59 107q0 4 -21.5 19.5t-21.5 41.5q0 21 14.5 37t36.5 16q23 0 39 -15.5t16 -42.5zM153 35q0 -59 -40 -109q-37 -45 -82 -54q59 45 59 107q0 4 -21.5 19.5t-21.5 41.5q0 21 14.5 37t36.5 16q23 0 39 -15.5t16 -42.5z" />
    <glyph glyph-name="perthousand" unicode="&#x2030;" horiz-adv-x="1154" 
d="M1124 166q0 -80 -53 -130q-49 -47 -118 -47q-74 0 -121 51.5t-47 125.5q0 72 51 120t119 48q70 0 119.5 -49.5t49.5 -118.5zM752 166q0 -80 -53 -130q-49 -47 -118 -47q-74 0 -121 51.5t-47 125.5q0 72 51 120t119 48q70 0 119.5 -49.5t49.5 -118.5zM598 709l-356 -737
h-59l356 737h59zM369 532q0 -80 -53 -130q-49 -47 -118 -47q-74 0 -121 51.5t-47 125.5q0 72 51.5 120t119.5 48q70 0 119 -49.5t49 -118.5zM1042 166q0 71 -30 109q-24 29 -57 29q-34 0 -58 -29q-30 -37 -30 -108q0 -77 31 -117q23 -30 55 -30q33 0 57 30q32 39 32 116z
M670 166q0 71 -30 109q-24 29 -57 29q-34 0 -58 -29q-30 -37 -30 -108q0 -77 31 -117q23 -30 55 -30q33 0 57 30q32 39 32 116zM288 532q0 71 -31 109q-24 29 -57 29q-34 0 -58 -29q-30 -37 -30 -108q0 -77 31 -117q24 -30 56 -30q33 0 57 30q32 39 32 116z" />
    <glyph glyph-name="Acircumflex" unicode="&#xc2;" horiz-adv-x="792" 
d="M802 -10q-100 10 -124 10q-25 0 -122 -10q40 30 40 44q0 24 -16 61l-38 87h-356l-38 -91q-18 -47 -18 -55q0 -24 52 -46q-66 10 -93 10t-99 -10q55 27 73 48q13 14 41 73l294 620l294 -622q14 -28 39 -68q21 -22 71 -51zM522 226l-150 353l-166 -353h316zM533 753
q0 -4 -6 -4q-21 0 -120 35q-5 2 -11 0l-118 -35q-4 0 -4 3q0 4 10 12l99 83q17 14 20 14l17 -12q1 -1 95 -81q9 -8 18 -15z" />
    <glyph glyph-name="Ecircumflex" unicode="&#xca;" horiz-adv-x="428" 
d="M408 82q7 -36 -6 -58t-15 -24q-9 -10 -28 -10q-27 0 -115.5 5t-105.5 5q-38 0 -116 -10q42 21 54 35q14 18 14 59v547q0 30 -19 48q-14 13 -54 31q102 -10 121 -10q11 0 78 3t77 3q17 0 25 -8l15 -23q8 -13 13 -71q-15 33 -27 44t-39 18q-11 3 -90 2v-286h77q65 0 77 67
q-5 -58 -5 -84q0 -15 8 -72q-24 52 -80 52h-77v-316h83q55 0 79 6q45 11 56 47zM313 753q0 -4 -6 -4q-21 0 -120 35q-5 2 -11 0l-118 -35q-4 0 -4 3q0 4 10 12l99 83q17 14 20 14l17 -12q1 -1 95 -81q9 -8 18 -15z" />
    <glyph glyph-name="Aacute" unicode="&#xc1;" horiz-adv-x="792" 
d="M802 -10q-100 10 -124 10q-25 0 -122 -10q40 30 40 44q0 24 -16 61l-38 87h-356l-38 -91q-18 -47 -18 -55q0 -24 52 -46q-66 10 -93 10t-99 -10q55 27 73 48q13 14 41 73l294 620l294 -622q14 -28 39 -68q21 -22 71 -51zM522 226l-150 353l-166 -353h316zM530 849
q0 -26 -34 -39l-163 -60l98 116q19 22 52 22q47 0 47 -39z" />
    <glyph glyph-name="Edieresis" unicode="&#xcb;" horiz-adv-x="428" 
d="M408 82q7 -36 -6 -58t-15 -24q-9 -10 -28 -10q-27 0 -115.5 5t-105.5 5q-38 0 -116 -10q42 21 54 35q14 18 14 59v547q0 30 -19 48q-14 13 -54 31q102 -10 121 -10q11 0 78 3t77 3q17 0 25 -8l15 -23q8 -13 13 -71q-15 33 -27 44t-39 18q-11 3 -90 2v-286h77q65 0 77 67
q-5 -58 -5 -84q0 -15 8 -72q-24 52 -80 52h-77v-316h83q55 0 79 6q45 11 56 47zM311 796q0 -20 -14 -33t-33 -13t-33 13t-14 33q0 19 14 33t33 14t33 -14t14 -33zM154 796q0 -20 -14 -33t-33 -13t-33 13t-14 33q0 19 14 33t33 14t33 -14t14 -33z" />
    <glyph glyph-name="Egrave" unicode="&#xc8;" horiz-adv-x="428" 
d="M408 82q7 -36 -6 -58t-15 -24q-9 -10 -28 -10q-27 0 -115.5 5t-105.5 5q-38 0 -116 -10q42 21 54 35q14 18 14 59v547q0 30 -19 48q-14 13 -54 31q102 -10 121 -10q11 0 78 3t77 3q17 0 25 -8l15 -23q8 -13 13 -71q-15 33 -27 44t-39 18q-11 3 -90 2v-286h77q65 0 77 67
q-5 -58 -5 -84q0 -15 8 -72q-24 52 -80 52h-77v-316h83q55 0 79 6q45 11 56 47zM240 750h-4l-159 60q-34 13 -34 39q0 39 47 39q33 0 52 -22z" />
    <glyph glyph-name="Iacute" unicode="&#xcd;" horiz-adv-x="280" 
d="M251 -10q-78 10 -112 10q-28 0 -115 -10q66 32 66 69v579q0 38 -64 72q98 -10 113 -10t110 10q-59 -34 -59 -72v-579q0 -37 61 -69zM315 849q0 -26 -34 -39l-163 -60l98 116q19 22 52 22q47 0 47 -39z" />
    <glyph glyph-name="Icircumflex" unicode="&#xce;" horiz-adv-x="280" 
d="M251 -10q-78 10 -112 10q-28 0 -115 -10q66 32 66 69v579q0 38 -64 72q98 -10 113 -10t110 10q-59 -34 -59 -72v-579q0 -37 61 -69zM271 753q0 -4 -6 -4q-21 0 -120 35q-5 2 -11 0l-118 -35q-4 0 -4 3q0 4 10 12l99 83q17 14 20 14l17 -12q1 -1 95 -81q9 -8 18 -15z" />
    <glyph glyph-name="Idieresis" unicode="&#xcf;" horiz-adv-x="280" 
d="M251 -10q-78 10 -112 10q-28 0 -115 -10q66 32 66 69v579q0 38 -64 72q98 -10 113 -10t110 10q-59 -34 -59 -72v-579q0 -37 61 -69zM268 796q0 -20 -14 -33t-33 -13t-33 13t-14 33q0 19 14 33t33 14t33 -14t14 -33zM111 796q0 -20 -14 -33t-33 -13t-33 13t-14 33
q0 19 14 33t33 14t33 -14t14 -33z" />
    <glyph glyph-name="Igrave" unicode="&#xcc;" horiz-adv-x="280" 
d="M251 -10q-78 10 -112 10q-28 0 -115 -10q66 32 66 69v579q0 38 -64 72q98 -10 113 -10t110 10q-59 -34 -59 -72v-579q0 -37 61 -69zM180 750h-4l-159 60q-34 13 -34 39q0 39 47 39q33 0 52 -22z" />
    <glyph glyph-name="Oacute" unicode="&#xd3;" horiz-adv-x="776" 
d="M746 329q0 -149 -114 -255q-105 -98 -230 -98q-161 0 -265 104q-107 107 -107 277q0 159 108 266q103 101 243 101q177 0 278 -129q87 -112 87 -266zM643 319q0 188 -78 287q-70 89 -184 89q-111 0 -180 -97q-66 -93 -66 -232q0 -171 82 -269q76 -91 195 -91q84 0 154 86
q77 94 77 227zM508 849q0 -26 -34 -39l-163 -60l98 116q19 22 52 22q47 0 47 -39z" />
    <glyph glyph-name="Ocircumflex" unicode="&#xd4;" horiz-adv-x="776" 
d="M746 329q0 -149 -114 -255q-105 -98 -230 -98q-161 0 -265 104q-107 107 -107 277q0 159 108 266q103 101 243 101q177 0 278 -129q87 -112 87 -266zM643 319q0 188 -78 287q-70 89 -184 89q-111 0 -180 -97q-66 -93 -66 -232q0 -171 82 -269q76 -91 195 -91q84 0 154 86
q77 94 77 227zM516 753q0 -4 -6 -4q-21 0 -120 35q-5 2 -11 0l-118 -35q-4 0 -4 3q0 4 10 12l99 83q17 14 20 14l17 -12q1 -1 95 -81q9 -8 18 -15z" />
    <glyph glyph-name="Ograve" unicode="&#xd2;" horiz-adv-x="776" 
d="M746 329q0 -149 -114 -255q-105 -98 -230 -98q-161 0 -265 104q-107 107 -107 277q0 159 108 266q103 101 243 101q177 0 278 -129q87 -112 87 -266zM643 319q0 188 -78 287q-70 89 -184 89q-111 0 -180 -97q-66 -93 -66 -232q0 -171 82 -269q76 -91 195 -91q84 0 154 86
q77 94 77 227zM453 750h-4l-159 60q-34 13 -34 39q0 39 47 39q33 0 52 -22z" />
    <glyph glyph-name="Uacute" unicode="&#xda;" horiz-adv-x="730" 
d="M724 710q-84 -32 -84 -79v-548q0 -58 82 -93q-101 10 -124 10q-14 0 -80 -10q21 21 21 77q-112 -77 -204 -77q-113 0 -184 74t-71 204v363q0 43 -82 79q113 -10 132 -10q21 0 119 10q-69 -34 -69 -79v-388q0 -97 53 -154t138 -57q47 0 105 29q48 24 63 43v527
q0 48 -81 79q111 -10 132 -10q19 0 134 10zM508 849q0 -26 -34 -39l-163 -60l98 116q19 22 52 22q47 0 47 -39z" />
    <glyph glyph-name="Ucircumflex" unicode="&#xdb;" horiz-adv-x="730" 
d="M724 710q-84 -32 -84 -79v-548q0 -58 82 -93q-101 10 -124 10q-14 0 -80 -10q21 21 21 77q-112 -77 -204 -77q-113 0 -184 74t-71 204v363q0 43 -82 79q113 -10 132 -10q21 0 119 10q-69 -34 -69 -79v-388q0 -97 53 -154t138 -57q47 0 105 29q48 24 63 43v527
q0 48 -81 79q111 -10 132 -10q19 0 134 10zM486 753q0 -4 -6 -4q-21 0 -120 35q-5 2 -11 0l-118 -35q-4 0 -4 3q0 4 10 12l99 83q17 14 20 14l17 -12q1 -1 95 -81q9 -8 18 -15z" />
    <glyph glyph-name="Ugrave" unicode="&#xd9;" horiz-adv-x="730" 
d="M724 710q-84 -32 -84 -79v-548q0 -58 82 -93q-101 10 -124 10q-14 0 -80 -10q21 21 21 77q-112 -77 -204 -77q-113 0 -184 74t-71 204v363q0 43 -82 79q113 -10 132 -10q21 0 119 10q-69 -34 -69 -79v-388q0 -97 53 -154t138 -57q47 0 105 29q48 24 63 43v527
q0 48 -81 79q111 -10 132 -10q19 0 134 10zM388 750h-4l-159 60q-34 13 -34 39q0 39 47 39q33 0 52 -22z" />
    <glyph glyph-name="circumflex" unicode="&#x2c6;" 
d="M533 753q0 -4 -6 -4q-21 0 -120 35q-5 2 -11 0l-118 -35q-4 0 -4 3q0 4 10 12l99 83q17 14 20 14l17 -12q1 -1 95 -81q9 -8 18 -15z" />
    <glyph glyph-name="tilde" unicode="&#x2dc;" 
d="M512 822q0 -21 -15 -45q-18 -29 -43 -29q-18 0 -58 15t-65 15q-28 0 -44.5 -15t-13.5 -15q-3 0 -3 4q0 18 23 46q26 32 55 32q18 0 62 -15t55 -15q24 0 35 15l11 15q1 0 1 -8z" />
    <glyph glyph-name="macron" unicode="&#xaf;" 
d="M510 796l-8 -35q0 -4 -4 -4h-206q-6 0 -6 2l8 37q0 4 6 4h206q5 0 4 -4z" />
    <glyph glyph-name="macron" unicode="&#x2c9;" 
d="M510 796l-8 -35q0 -4 -4 -4h-206q-6 0 -6 2l8 37q0 4 6 4h206q5 0 4 -4z" />
    <glyph glyph-name="cedilla" unicode="&#xb8;" 
d="M526 -130q0 -39 -49 -67q-42 -24 -85 -24h-42q102 16 102 70q0 62 -51 77q-11 3 -11 4l12 11l58 54h19q-16 -21 -44 -54q91 -10 91 -71z" />
    <glyph glyph-name="Scaron" unicode="&#x160;" horiz-adv-x="438" 
d="M398 187q0 -80 -53 -144q-56 -67 -133 -67q-47 0 -84.5 12t-47.5 12q-8 0 -19 -6q-20 20 -24 141q34 -78 61 -100q35 -30 115 -30q43 0 85 43q39 42 39 81q0 63 -74 133l-137 120q-74 76 -74 154q0 77 46.5 132.5t121.5 55.5q52 0 87 -14q51 -21 68 -25q-7 -42 -7 -57
t-3 -83q-7 41 -24 100q-10 19 -47 36.5t-76 17.5q-49 0 -78.5 -33t-29.5 -75q0 -46 75 -113q132 -119 138 -126q75 -82 75 -165zM353 858q0 -5 -11 -14l-98 -81q-17 -14 -20 -14l-17 12q-1 1 -95 81q-9 8 -17 16q0 3 5 3q21 0 120 -35q5 -2 11 0l118 35q4 0 4 -3z" />
    <glyph glyph-name="scaron" unicode="&#x161;" horiz-adv-x="438" 
d="M398 187q0 -80 -53 -144q-56 -67 -133 -67q-47 0 -84.5 12t-47.5 12q-8 0 -19 -6q-20 20 -24 141q34 -78 61 -100q35 -30 115 -30q43 0 85 43q39 42 39 81q0 63 -74 133l-137 120q-74 76 -74 154q0 77 46.5 132.5t121.5 55.5q52 0 87 -14q51 -21 68 -25q-7 -42 -7 -57
t-3 -83q-7 41 -24 100q-10 19 -47 36.5t-76 17.5q-49 0 -78.5 -33t-29.5 -75q0 -46 75 -113q132 -119 138 -126q75 -82 75 -165zM353 858q0 -5 -11 -14l-98 -81q-17 -14 -20 -14l-17 12q-1 1 -95 81q-9 8 -17 16q0 3 5 3q21 0 120 -35q5 -2 11 0l118 35q4 0 4 -3z" />
    <glyph glyph-name="brokenbar" unicode="&#xa6;" horiz-adv-x="492" 
 />
    <glyph glyph-name="Eth" unicode="&#xd0;" horiz-adv-x="711" 
d="M681 343q0 -156 -91 -253q-96 -103 -265 -103q-51 0 -119.5 6.5l-68.5 6.5q-67 0 -127 -10q43 22 58 37q22 23 22 63v259h-54v53h54v227q0 29 -13.5 44.5t-63.5 36.5q102 -10 127 -10q9 0 85 4t106 4q140 0 232 -75q118 -95 118 -290zM574 318q0 157 -69 259.5
t-172 102.5q-55 0 -143 -11v-267h147v-53h-147v-322q64 -13 129 -13q102 0 170 65q85 80 85 239z" />
    <glyph glyph-name="eth" unicode="&#xf0;" horiz-adv-x="711" 
d="M681 343q0 -156 -91 -253q-96 -103 -265 -103q-51 0 -119.5 6.5l-68.5 6.5q-67 0 -127 -10q43 22 58 37q22 23 22 63v259h-54v53h54v227q0 29 -13.5 44.5t-63.5 36.5q102 -10 127 -10q9 0 85 4t106 4q140 0 232 -75q118 -95 118 -290zM574 318q0 157 -69 259.5
t-172 102.5q-55 0 -143 -11v-267h147v-53h-147v-322q64 -13 129 -13q102 0 170 65q85 80 85 239z" />
    <glyph glyph-name="Yacute" unicode="&#xdd;" horiz-adv-x="846" 
d="M856 710q-61 -22 -89 -41q-32 -22 -50 -58l-317 -625q-41 -82 -125 -131q-63 -37 -129 -47q52 22 107 66q61 49 82 92l41 84l-265 588q-10 23 -38 38q-16 8 -83 34q134 -10 161 -10q21 0 111 10q-43 -24 -43 -55q0 -10 216 -489l237 478q0 26 -16 41q-8 7 -41 25
q91 -10 105 -10q21 0 136 10zM580 856q0 -26 -34 -39l-163 -60l98 116q19 22 52 22q47 0 47 -39z" />
    <glyph glyph-name="yacute" unicode="&#xfd;" horiz-adv-x="846" 
d="M856 710q-61 -22 -89 -41q-32 -22 -50 -58l-317 -625q-41 -82 -125 -131q-63 -37 -129 -47q52 22 107 66q61 49 82 92l41 84l-265 588q-10 23 -38 38q-16 8 -83 34q134 -10 161 -10q21 0 111 10q-43 -24 -43 -55q0 -10 216 -489l237 478q0 26 -16 41q-8 7 -41 25
q91 -10 105 -10q21 0 136 10zM580 856q0 -26 -34 -39l-163 -60l98 116q19 22 52 22q47 0 47 -39z" />
    <glyph glyph-name="Thorn" unicode="&#xde;" horiz-adv-x="462" 
d="M442 349q0 -74 -47.5 -127.5t-120.5 -53.5q-32 0 -72 16l1 3q37 -3 53 -3q33 0 60 32q33 40 33 114q0 81 -31.5 126.5t-89.5 45.5q-11 0 -38 -3v-436q0 -40 95 -73q-122 10 -146 10q-13 0 -124 -10q75 36 75 70v596q0 24 -65 54q99 -10 111 -10q47 0 99 10
q-45 -32 -45 -55v-125q33 3 58 3q81 0 137.5 -52t56.5 -132z" />
    <glyph glyph-name="thorn" unicode="&#xfe;" horiz-adv-x="462" 
d="M442 349q0 -74 -47.5 -127.5t-120.5 -53.5q-32 0 -72 16l1 3q37 -3 53 -3q33 0 60 32q33 40 33 114q0 81 -31.5 126.5t-89.5 45.5q-11 0 -38 -3v-436q0 -40 95 -73q-122 10 -146 10q-13 0 -124 -10q75 36 75 70v596q0 24 -65 54q99 -10 111 -10q47 0 99 10
q-45 -32 -45 -55v-125q33 3 58 3q81 0 137.5 -52t56.5 -132z" />
    <glyph glyph-name="minus" unicode="&#xad;" horiz-adv-x="460" 
 />
    <glyph glyph-name="minus" unicode="&#x2212;" horiz-adv-x="460" 
 />
    <glyph glyph-name="multiply" unicode="&#xd7;" horiz-adv-x="475" 
 />
    <glyph glyph-name="onesuperior" unicode="&#xb9;" horiz-adv-x="795" 
d="M765 429l-228 -171l88 -272l-227 167l-227 -167l89 272l-230 171h283l85 264l84 -264h283zM710 410h-241l-71 225l-73 -225h-240l196 -146l-76 -230l193 142l193 -142l-75 230z" />
    <glyph glyph-name="twosuperior" unicode="&#xb2;" horiz-adv-x="443" 
 />
    <glyph glyph-name="threesuperior" unicode="&#xb3;" horiz-adv-x="508" 
 />
    <glyph glyph-name="onehalf" unicode="&#xbd;" horiz-adv-x="795" 
d="M765 429l-228 -171l88 -272l-227 167l-227 -167l89 272l-230 171h283l85 264l84 -264h283z" />
    <glyph glyph-name="onequarter" unicode="&#xbc;" horiz-adv-x="767" 
d="M737 340q0 -147 -103 -250.5t-250 -103.5q-145 0 -249.5 103t-104.5 249q0 148 103.5 251.5t251.5 103.5q146 0 249 -103.5t103 -249.5zM698 446h-240l-75 221l-73 -221h-238l188 -142l-78 -231l201 143l191 -143l-71 231z" />
    <glyph glyph-name="threequarters" unicode="&#xbe;" horiz-adv-x="431" 
 />
    <glyph glyph-name=".null" 
 />
    <glyph glyph-name="Lslash" unicode="&#x141;" horiz-adv-x="487" 
d="M477 114l-36 -84q-14 -23 -18 -28q-11 -11 -30 -11q-34 0 -124.5 4.5t-130.5 4.5q-39 0 -120 -10q38 20 52 33q20 20 20 51v256l-54 -11v56l54 11v238q0 57 -75 87q104 -11 122 -11q19 0 133 10q-80 -27 -80 -86v-216l144 30v-56l-144 -30v-318q45 -4 84 -4q117 0 141 19
q21 17 62 65z" />
    <glyph glyph-name="lslash" unicode="&#x142;" horiz-adv-x="487" 
d="M477 114l-36 -84q-14 -23 -18 -28q-11 -11 -30 -11q-34 0 -124.5 4.5t-130.5 4.5q-39 0 -120 -10q38 20 52 33q20 20 20 51v256l-54 -11v56l54 11v238q0 57 -75 87q104 -11 122 -11q19 0 133 10q-80 -27 -80 -86v-216l144 30v-56l-144 -30v-318q45 -4 84 -4q117 0 141 19
q21 17 62 65z" />
    <glyph glyph-name="Zcaron" unicode="&#x17d;" horiz-adv-x="684" 
d="M680 144q-12 -40 -37 -105q-22 -41 -51 -41q-43 0 -121 1t-123 1h-337l273 387l190 271l-335 1q-24 0 -47 -23q-20 -19 -29 -45q-1 81 16 97t47 16q-6 0 54 -2t168 -2q116 0 275 6l-221 -320q-204 -297 -235 -345q182 -2 191 -2q190 0 212 7q57 18 110 98zM454 858
q0 -5 -11 -14l-98 -81q-17 -14 -20 -14l-17 12q-1 1 -95 81q-9 8 -17 16q0 3 5 3q21 0 120 -35q5 -2 11 0l118 35q4 0 4 -3z" />
    <glyph glyph-name="zcaron" unicode="&#x17e;" horiz-adv-x="684" 
d="M680 144q-12 -40 -37 -105q-22 -41 -51 -41q-43 0 -121 1t-123 1h-337l273 387l190 271l-335 1q-24 0 -47 -23q-20 -19 -29 -45q-1 81 16 97t47 16q-6 0 54 -2t168 -2q116 0 275 6l-221 -320q-204 -297 -235 -345q182 -2 191 -2q190 0 212 7q57 18 110 98zM454 858
q0 -5 -11 -14l-98 -81q-17 -14 -20 -14l-17 12q-1 1 -95 81q-9 8 -17 16q0 3 5 3q21 0 120 -35q5 -2 11 0l118 35q4 0 4 -3z" />
    <glyph glyph-name="DEL" 
 />
    <glyph glyph-name="notequal" unicode="&#x2260;" horiz-adv-x="729" 
d="M679 183q-5 -47 -15 -112q-3 -17 -16 -56q-13 -4 -29 -10q-20 -8 -68 -18q-61 -11 -116 -11q-208 0 -316 119q-89 98 -89 248q0 181 120 288q104 93 244 93q42 0 123.5 -16t118.5 -32q7 -3 12 -7q0 -47 -1 -60q-2 -20 -13 -103q-21 118 -50 138q-24 17 -74 33
q-61 19 -112 19q-116 0 -191 -95q-71 -90 -71 -218q0 -176 75 -274q78 -103 229 -103q130 0 185 63q30 35 54 114zM516 753q0 -4 -6 -4q-21 0 -120 35q-5 2 -11 0l-118 -35q-4 0 -4 3q0 4 10 12l99 83q17 14 20 14l17 -12q1 -1 95 -81q9 -8 18 -15z" />
    <glyph glyph-name="infinity" unicode="&#x221e;" horiz-adv-x="729" 
d="M679 183q-5 -47 -15 -112q-3 -17 -16 -56q-13 -4 -29 -10q-20 -8 -68 -18q-61 -11 -116 -11q-208 0 -316 119q-89 98 -89 248q0 181 120 288q104 93 244 93q42 0 123.5 -16t118.5 -32q7 -3 12 -7q0 -47 -1 -60q-2 -20 -13 -103q-21 118 -50 138q-24 17 -74 33
q-61 19 -112 19q-116 0 -191 -95q-71 -90 -71 -218q0 -176 75 -274q78 -103 229 -103q130 0 185 63q30 35 54 114zM516 753q0 -4 -6 -4q-21 0 -120 35q-5 2 -11 0l-118 -35q-4 0 -4 3q0 4 10 12l99 83q17 14 20 14l17 -12q1 -1 95 -81q9 -8 18 -15z" />
    <glyph glyph-name="lessequal" unicode="&#x2264;" horiz-adv-x="737" 
d="M726 306q-83 -38 -83 -62v-245h-52q5 0 -53 -9.5t-121 -9.5q-211 0 -314 138q-73 99 -73 227q0 158 98 265q104 114 268 114q94 0 202 -52q16 -4 48 -16q1 -30 0 -46q-2 -19 -12 -94q-13 57 -36 89q-11 15 -37 34q-73 55 -169 55q-106 0 -181.5 -91t-75.5 -229
q0 -158 69 -257q74 -108 208 -108q55 0 128 22v216q0 25 -84 61q111 -10 131 -10q21 0 139 8zM516 753q0 -4 -6 -4q-21 0 -120 35q-5 2 -11 0l-118 -35q-4 0 -4 3q0 4 10 12l99 83q17 14 20 14l17 -12q1 -1 95 -81q9 -8 18 -15z" />
    <glyph glyph-name="greaterequal" unicode="&#x2265;" horiz-adv-x="737" 
d="M726 306q-83 -38 -83 -62v-245h-52q5 0 -53 -9.5t-121 -9.5q-211 0 -314 138q-73 99 -73 227q0 158 98 265q104 114 268 114q94 0 202 -52q16 -4 48 -16q1 -30 0 -46q-2 -19 -12 -94q-13 57 -36 89q-11 15 -37 34q-73 55 -169 55q-106 0 -181.5 -91t-75.5 -229
q0 -158 69 -257q74 -108 208 -108q55 0 128 22v216q0 25 -84 61q111 -10 131 -10q21 0 139 8zM516 753q0 -4 -6 -4q-21 0 -120 35q-5 2 -11 0l-118 -35q-4 0 -4 3q0 4 10 12l99 83q17 14 20 14l17 -12q1 -1 95 -81q9 -8 18 -15z" />
    <glyph glyph-name="partialdiff" unicode="&#x2202;" horiz-adv-x="727" 
d="M708 -15q-98 15 -122 15q-37 0 -110 -17q38 27 43 32q18 18 18 45v304h-347v-298q0 -33 22 -50q9 -7 53 -26q-99 10 -124 10q-43 0 -129 -10q78 33 78 79v561q0 32 -15 49q-12 14 -48 31q94 -10 114 -10t106 10q-38 -25 -43 -32q-14 -15 -14 -48v-224h347v218
q0 40 -17 55l-51 30q97 -9 117 -9q19 0 106 8q-40 -26 -47.5 -37t-7.5 -47v-562q0 -30 19 -46zM486 753q0 -4 -6 -4q-21 0 -120 35q-5 2 -11 0l-118 -35q-4 0 -4 3q0 4 10 12l99 83q17 14 20 14l17 -12q1 -1 95 -81q9 -8 18 -15z" />
    <glyph glyph-name="summation" unicode="&#x2211;" horiz-adv-x="727" 
d="M708 -15q-98 15 -122 15q-37 0 -110 -17q38 27 43 32q18 18 18 45v304h-347v-298q0 -33 22 -50q9 -7 53 -26q-99 10 -124 10q-43 0 -129 -10q78 33 78 79v561q0 32 -15 49q-12 14 -48 31q94 -10 114 -10t106 10q-38 -25 -43 -32q-14 -15 -14 -48v-224h347v218
q0 40 -17 55l-51 30q97 -9 117 -9q19 0 106 8q-40 -26 -47.5 -37t-7.5 -47v-562q0 -30 19 -46zM486 753q0 -4 -6 -4q-21 0 -120 35q-5 2 -11 0l-118 -35q-4 0 -4 3q0 4 10 12l99 83q17 14 20 14l17 -12q1 -1 95 -81q9 -8 18 -15z" />
    <glyph glyph-name="product" unicode="&#x220f;" horiz-adv-x="277" 
d="M248 709q-58 -29 -58 -82v-571q0 -79 -47 -150q-58 -85 -155 -97q59 28 80.5 73t21.5 148v597q0 53 -68 82q103 -9 119 -9t107 9zM268 753q0 -4 -6 -4q-21 0 -120 35q-5 2 -11 0l-118 -35q-4 0 -4 3q0 4 10 12l99 83q17 14 20 14l17 -12q1 -1 95 -81q9 -8 18 -15z" />
    <glyph glyph-name="pi" unicode="&#x3c0;" horiz-adv-x="277" 
d="M248 709q-58 -29 -58 -82v-571q0 -79 -47 -150q-58 -85 -155 -97q59 28 80.5 73t21.5 148v597q0 53 -68 82q103 -9 119 -9t107 9zM268 753q0 -4 -6 -4q-21 0 -120 35q-5 2 -11 0l-118 -35q-4 0 -4 3q0 4 10 12l99 83q17 14 20 14l17 -12q1 -1 95 -81q9 -8 18 -15z" />
    <glyph glyph-name="integral" unicode="&#x222b;" horiz-adv-x="438" 
d="M398 187q0 -80 -53 -144q-56 -67 -133 -67q-47 0 -84.5 12t-47.5 12q-8 0 -19 -6q-20 20 -24 141q34 -78 61 -100q35 -30 115 -30q43 0 85 43q39 42 39 81q0 63 -74 133l-137 120q-74 76 -74 154q0 77 46.5 132.5t121.5 55.5q52 0 87 -14q51 -21 68 -25q-7 -42 -7 -57
t-3 -83q-7 41 -24 100q-10 19 -47 36.5t-76 17.5q-49 0 -78.5 -33t-29.5 -75q0 -46 75 -113q132 -119 138 -126q75 -82 75 -165zM351 753q0 -4 -6 -4q-21 0 -120 35q-5 2 -11 0l-118 -35q-4 0 -4 3q0 4 10 12l99 83q17 14 20 14l17 -12q1 -1 95 -81q9 -8 18 -15z" />
    <glyph glyph-name="Omega" unicode="&#x3a9;" horiz-adv-x="438" 
d="M398 187q0 -80 -53 -144q-56 -67 -133 -67q-47 0 -84.5 12t-47.5 12q-8 0 -19 -6q-20 20 -24 141q34 -78 61 -100q35 -30 115 -30q43 0 85 43q39 42 39 81q0 63 -74 133l-137 120q-74 76 -74 154q0 77 46.5 132.5t121.5 55.5q52 0 87 -14q51 -21 68 -25q-7 -42 -7 -57
t-3 -83q-7 41 -24 100q-10 19 -47 36.5t-76 17.5q-49 0 -78.5 -33t-29.5 -75q0 -46 75 -113q132 -119 138 -126q75 -82 75 -165zM351 753q0 -4 -6 -4q-21 0 -120 35q-5 2 -11 0l-118 -35q-4 0 -4 3q0 4 10 12l99 83q17 14 20 14l17 -12q1 -1 95 -81q9 -8 18 -15z" />
    <glyph glyph-name="Omega" unicode="&#x2126;" horiz-adv-x="438" 
d="M398 187q0 -80 -53 -144q-56 -67 -133 -67q-47 0 -84.5 12t-47.5 12q-8 0 -19 -6q-20 20 -24 141q34 -78 61 -100q35 -30 115 -30q43 0 85 43q39 42 39 81q0 63 -74 133l-137 120q-74 76 -74 154q0 77 46.5 132.5t121.5 55.5q52 0 87 -14q51 -21 68 -25q-7 -42 -7 -57
t-3 -83q-7 41 -24 100q-10 19 -47 36.5t-76 17.5q-49 0 -78.5 -33t-29.5 -75q0 -46 75 -113q132 -119 138 -126q75 -82 75 -165zM351 753q0 -4 -6 -4q-21 0 -120 35q-5 2 -11 0l-118 -35q-4 0 -4 3q0 4 10 12l99 83q17 14 20 14l17 -12q1 -1 95 -81q9 -8 18 -15z" />
    <glyph glyph-name="radical" unicode="&#x221a;" horiz-adv-x="700" 
d="M700 348q0 -12 -8 -12q-2 0 -11 4.5t-11 4.5h-134q-4 0 -12 -15.5t-8 -19.5q0 -2 10 -7q14 -6 21 -11q12 -10 27 -21q7 0 7 9q0 2 -5.5 13.5t-5.5 13.5q0 8 11.5 14t20.5 6l25 -9q21 -7 21 -9t-6.5 -17t-6.5 -24t21 -46.5t21 -40.5t-4 -3q-3 0 -33 11.5t-44 11.5
q-15 0 -38 -12.5t-26 -12.5q-7 0 -7 11q0 1 1 4v4q0 16 -12 28.5t-12 15.5q0 8 8.5 18t16.5 10q2 0 14.5 -6t14.5 -6q10 0 10 7q0 8 -23.5 23.5t-32.5 15.5h-5q-11 -16 -46 -16q-22 0 -31 -1q-3 -2 -3 -6q0 -5 6 -19.5t10 -14.5q2 0 7.5 7t12.5 7q2 0 2 -5q0 -3 -2 -8.5
t-2 -8.5q0 -1 4.5 -7.5t4.5 -8.5q0 -3 -9 -2.5t-10 -0.5q-46 -36 -54 -36q-3 1 -3 3q0 4 3.5 8t3.5 5q3 9 3 20q0 7 -8 15t-8 10q0 -3 12 12q6 10 7 10q3 0 9.5 -9.5t8.5 -9.5t4 2q0 5 -4.5 14.5t-4.5 13.5v6q0 5 -13 17q-8 8 -17 16q-5 10 -17 27q-3 3 -7 3
q-9 0 -15.5 -5.5t-10.5 -5.5q-1 0 -9 4t-11 4q-12 0 -35.5 2t-35.5 2q-64 0 -64 -6q0 -4 15 -23t21 -23q16 -12 32 -12q18 0 23 13q1 7 3.5 15.5t14.5 8.5q21 0 21 -8.5t1.5 -13.5t1.5 -6q0 -11 -15 -11q-3 0 -9.5 3t-9.5 3q-5 0 -12 -5t-7 -9q0 -6 16 -10l21 -6
q4 -4 13 -12q17 -11 17 -18q0 -10 -11 -10q-13 0 -15 7t-5 15.5t-15 11.5q-17 5 -18 6q-8 6 -26 14q-1 -12 12 -30q5 -4 11 -8q9 -9 9 -21t-15 -12q-22 0 -22 18q0 5 4 11t4 7q0 12 -27 47l-37 46q-10 -26 -34 -62q0 -7 10 -7l22 5q1 -6 5 -17q9 -19 9 -15q0 -2 -5.5 -6
t-7.5 -8q-11 -16 -12.5 -27.5t-2.5 -11.5q-4 0 -22 12t-34 12q-13 0 -38 -12t-28 -12t-3 4q0 1 14.5 32t14.5 42q0 14 -11 31t-11 16q0 8 14 8h20q8 2 13.5 8t8.5 6q23 0 23 -29q0 -17 0 -15q1 -8 10 -8q11 0 23 26q12 23 12 36q0 8 -10 8h-77q-63 0 -76 2h-6v7q0 1 12 1.5
t13 3.5q4 11 14 30q14 22 47 30q-4 14 -13 40q-4 1 -23 -11q-3 8 -11 13l-8 5q0 2 8 12t8 16q0 5 -3.5 12l-3.5 7q1 2 3 2q9 0 31 -20q4 -4 17 -5.5t17 -5.5l-7 -17q0 -17 -4 -17q-2 0 -6 4t-9 5q0 -8 5 -22.5t11 -15.5t26 -6q6 -2 12.5 -9t7.5 -7q11 0 36.5 13.5t25.5 23.5
q0 7 -8 7q-5 0 -14.5 -4t-14.5 -4q-9 0 -11.5 6t-4.5 12q-6 13 -6 12q0 3 13 15t13 30q0 1 -1 6t0 7q1 3 5 3l23 -12.5t40 -12.5q19 0 51.5 12.5t31.5 12.5q6 0 6 -5q0 -2 -9 -17t-11 -21l-14 -22q-12 -18 -12 -36q0 10 13 -42q-45 -16 -50 -16t-16.5 8.5t-11.5 14.5
q0 4 3 11.5t3 11.5q0 9 -11 9q-5 0 -13 -7q-11 -9 -13 -10q-11 -4 -34 -15q4 -4 15 -22q8 -15 13 -15q10 0 33 1.5t35 1.5q8 0 28.5 -1.5t28.5 -1.5q6 0 16 4t12 4t7.5 -3t7.5 -3q10 -2 51 -2q5 0 14.5 1.5t14.5 1.5q4 0 12.5 -2t12.5 -2q3 0 30.5 1t33.5 1t6 7q0 20 -12 44
q-9 19 -22 19q-12 0 -12 -15v-25q-3 -13 -18 -13q-2 0 -20 9t-30 10q-18 2 -18 4q0 8 11 22t11 29q0 8 -10 40q-2 6 -10.5 17.5t-8.5 15.5t6 4q5 0 35 -11t31 -11q8 0 32 12.5t30 12.5q2 0 3 -12t3 -17t12.5 -12.5t10.5 -10.5q0 -2 -3.5 -8t-4.5 -8q0 -7 -2 -22
q-6 0 -15.5 4t-13.5 4q-12 0 -12 -9q0 -1 9 -9.5t13 -17t11 -41.5q2 0 10 12q11 17 30 35q9 9 19 18q15 18 15 28q0 8 -11 14.5t-11 18.5q0 18 19 18q24 0 24 -24q0 -5 -6 -11.5t-7 -8t-5 -18.5q-3 -11 -3 -10q0 -3 1 -4q3 0 28 14q13 7 14 26q1 16 15 16q15 0 15 -16
q0 -14 -12 -14h-9q-9 -10 -32 -28l12 -15q11 2 20 -3t9 -16q0 -22 -18 -22q-25 0 -25 18q0 3 2.5 8.5t2.5 8.5q0 2 -5.5 8t-8.5 6q-1 0 -3.5 -1.5t-3.5 -1.5q-26 0 -58 -49l-7 -11q0 -8 12 -8q101 0 110 1q4 0 14 5t11 5q12 0 12 -15zM519 342q-1 1 -28 1q-23 0 -25 -0.5
t-6 -3.5t-6 -3t-10 3.5t-19 3.5q-35 0 -38 -4q-4 -5 12 -21t20 -16l9.5 8t25.5 8h14q-1 0 37 -6q5 9 13 25q1 4 1 5zM493 303q0 5 -42 5q-21 0 -21 -11q0 -5 7 -5q16 0 40 2q16 1 16 9zM130 397q-11 10 -14 10h-11q4 -2 8.5 -6t16.5 -4zM160 357q0 8 -8 19t-13 11h-11
q-10 0 -22.5 10.5t-15.5 10.5q-26 0 -42 -21q-12 -15 -12 -30q0 -5 22 -5h51q51 0 51 5z" />
    <glyph glyph-name="approxequal" unicode="&#x2248;" horiz-adv-x="730" 
d="M724 710q-84 -32 -84 -79v-548q0 -58 82 -93q-101 10 -124 10q-14 0 -80 -10q21 21 21 77q-112 -77 -204 -77q-113 0 -184 74t-71 204v363q0 43 -82 79q113 -10 132 -10q21 0 119 10q-69 -34 -69 -79v-388q0 -97 53 -154t138 -57q47 0 105 29q48 24 63 43v527
q0 48 -81 79q111 -10 132 -10q19 0 134 10zM482 853q0 -36 -33 -68q-36 -35 -86 -35q-47 0 -83 34t-36 72q0 6 2 6q-1 0 13.5 -16t34.5 -26q30 -15 68 -15q42 0 72 15q20 10 33 26t12 16q3 0 3 -9z" />
    <glyph glyph-name="approxequal" unicode="&#x22f2;" horiz-adv-x="730" 
d="M724 710q-84 -32 -84 -79v-548q0 -58 82 -93q-101 10 -124 10q-14 0 -80 -10q21 21 21 77q-112 -77 -204 -77q-113 0 -184 74t-71 204v363q0 43 -82 79q113 -10 132 -10q21 0 119 10q-69 -34 -69 -79v-388q0 -97 53 -154t138 -57q47 0 105 29q48 24 63 43v527
q0 48 -81 79q111 -10 132 -10q19 0 134 10zM482 853q0 -36 -33 -68q-36 -35 -86 -35q-47 0 -83 34t-36 72q0 6 2 6q-1 0 13.5 -16t34.5 -26q30 -15 68 -15q42 0 72 15q20 10 33 26t12 16q3 0 3 -9z" />
    <glyph glyph-name="Delta" unicode="&#x394;" horiz-adv-x="730" 
d="M724 710q-84 -32 -84 -79v-548q0 -58 82 -93q-101 10 -124 10q-14 0 -80 -10q21 21 21 77q-112 -77 -204 -77q-113 0 -184 74t-71 204v363q0 43 -82 79q113 -10 132 -10q21 0 119 10q-69 -34 -69 -79v-388q0 -97 53 -154t138 -57q47 0 105 29q48 24 63 43v527
q0 48 -81 79q111 -10 132 -10q19 0 134 10zM482 853q0 -36 -33 -68q-36 -35 -86 -35q-47 0 -83 34t-36 72q0 6 2 6q-1 0 13.5 -16t34.5 -26q30 -15 68 -15q42 0 72 15q20 10 33 26t12 16q3 0 3 -9z" />
    <glyph glyph-name="Delta" unicode="&#x2206;" horiz-adv-x="730" 
d="M724 710q-84 -32 -84 -79v-548q0 -58 82 -93q-101 10 -124 10q-14 0 -80 -10q21 21 21 77q-112 -77 -204 -77q-113 0 -184 74t-71 204v363q0 43 -82 79q113 -10 132 -10q21 0 119 10q-69 -34 -69 -79v-388q0 -97 53 -154t138 -57q47 0 105 29q48 24 63 43v527
q0 48 -81 79q111 -10 132 -10q19 0 134 10zM482 853q0 -36 -33 -68q-36 -35 -86 -35q-47 0 -83 34t-36 72q0 6 2 6q-1 0 13.5 -16t34.5 -26q30 -15 68 -15q42 0 72 15q20 10 33 26t12 16q3 0 3 -9z" />
    <glyph glyph-name="lozenge" unicode="&#x25ca;" horiz-adv-x="457" 
d="M457 381q0 -39 -32 -88q-37 -56 -83 -56q-3 0 -12.5 2t-12.5 2q-25 0 -25 -40q0 -23 41 -93.5t40 -87.5q-2 -3 -14 -9t-19 -6q-5 0 -11.5 7t-6.5 16q-1 37 -17 78q-23 63 -64 63q-9 0 -16 -14q-9 -18 -19 -25q-19 -14 -59 -14q-36 0 -94 34q-53 32 -53 43q0 7 12 7
q3 0 11.5 -5.5t20.5 -5.5q27 0 63 16t53 16q24 0 46.5 -19.5t34.5 -19.5q20 0 20 4q0 8 -28 42q-26 29 -31 33q-15 4 -30 9q-26 9 -26 24q0 6 10.5 20.5t10.5 16.5q0 13 -20 14h-28q-67 20 -67 112q0 87 49 172q40 71 57 71q5 0 5 -19q0 -2 -4 -17.5t-4 -26.5
q0 -38 34.5 -113t34.5 -111q0 -28 -23.5 -47.5t-23.5 -20.5q0 -8 22.5 -16.5t25.5 -24.5q-5 -11 -9 -34q0 -2 25.5 -31t29.5 -29q5 0 8 9l6 18q5 5 11 15q2 6 -1 18.5t-2 18.5q8 29 36 39q25 6 50 13q29 12 44 31q10 13 16 30q5 13 7 13q11 0 11 -34z" />
    <glyph glyph-name="fraction" unicode="&#x2044;" horiz-adv-x="167" 
d="M333 720l-438 -731h-62l439 731h61z" />
    <glyph glyph-name="fi" unicode="&#xf001;" horiz-adv-x="691" 
d="M662 -10q-78 10 -112 10q-28 0 -115 -10q66 32 66 69v579q0 38 -64 72q98 -10 113 -10t110 10q-59 -34 -59 -72v-579q0 -37 61 -69zM386 606q-15 34 -33 46q-22 16 -69 16h-94v-267h97q58 0 84 48q-5 -52 -5 -67t5 -69q-22 35 -33 42q-14 8 -53 8h-95v-289q0 -36 17 -53
q1 0 49 -31q-92 10 -115 10q-33 0 -120 -10q41 17 55 33.5t14 50.5v556q0 28 -9 41q-13 17 -58 39q96 -10 115 -10q10 0 101.5 2t101.5 2q42 0 45 -98z" />
    <glyph glyph-name="fl" unicode="&#xf002;" horiz-adv-x="898" 
d="M888 114l-36 -84q-14 -23 -18 -28q-11 -11 -30 -11q-34 0 -124.5 4.5t-130.5 4.5q-39 0 -120 -10q38 20 52 33q20 20 20 51v550q0 57 -75 87q104 -11 122 -11q19 0 133 10q-80 -27 -80 -86v-590q45 -4 84 -4q117 0 141 19q21 17 62 65zM386 606q-15 34 -33 46
q-22 16 -69 16h-94v-267h97q58 0 84 48q-5 -52 -5 -67t5 -69q-22 35 -33 42q-14 8 -53 8h-95v-289q0 -36 17 -53q1 0 49 -31q-92 10 -115 10q-33 0 -120 -10q41 17 55 33.5t14 50.5v556q0 28 -9 41q-13 17 -58 39q96 -10 115 -10q10 0 101.5 2t101.5 2q42 0 45 -98z" />
    <glyph glyph-name="apple" unicode="&#xf000;" horiz-adv-x="778" 
d="M738 0h-698v700h698v-700z" />
    <glyph glyph-name="dotlessi" unicode="&#x131;" horiz-adv-x="280" 
d="M251 -10q-78 10 -112 10q-28 0 -115 -10q66 32 66 69v579q0 38 -64 72q98 -10 113 -10t110 10q-59 -34 -59 -72v-579q0 -37 61 -69z" />
    <glyph glyph-name="breve" unicode="&#x2d8;" 
d="M482 853q0 -36 -33 -68q-36 -35 -86 -35q-47 0 -83 34t-36 72q0 6 2 6q-1 0 13.5 -16t34.5 -26q30 -15 68 -15q42 0 72 15q20 10 33 26t12 16q3 0 3 -9z" />
    <glyph glyph-name="dotaccent" unicode="&#x2d9;" 
d="M433 799q0 -20 -12 -34.5t-32 -14.5q-22 0 -33 15t-11 32t10 31q12 18 34 18q19 0 31.5 -13.5t12.5 -33.5z" />
    <glyph glyph-name="ring" unicode="&#x2da;" 
d="M434 823q0 -32 -24.5 -52.5t-60.5 -20.5q-37 0 -62.5 19.5t-25.5 50.5q0 30 24.5 51.5t60.5 21.5q37 0 62.5 -20.5t25.5 -49.5zM387 825q0 42 -42 42q-15 0 -26 -12.5t-11 -32.5q0 -46 41 -46q38 0 38 49z" />
    <glyph glyph-name="hungarumlaut" unicode="&#x2dd;" 
d="M550 852l-144 -87q-3 0 -3 3q0 4 40 58q37 50 47 61q2 3 5 5q13 0 55 -40zM429 856q-128 -91 -132 -91t-4 2q12 23 41 68q35 54 44 54q15 0 51 -33z" />
    <glyph glyph-name="ogonek" unicode="&#x2db;" 
d="M445 -170q-66 -24 -121 -24q-98 0 -98 69q0 47 103 125h18q-34 -35 -44 -63q-5 -15 -5 -44q0 -20 24 -45.5t41 -25.5q22 0 82 8z" />
    <glyph glyph-name="caron" unicode="&#x2c7;" 
d="M336 858q0 -5 -11 -14l-98 -81q-17 -14 -20 -14l-17 12q-1 1 -95 81q-9 8 -17 16q0 3 5 3q21 0 120 -35q5 -2 11 0l118 35q4 0 4 -3z" />
    </font>
</defs>
</svg>
